<svg width="52" height="52" viewBox="0 0 52 52" fill="none" xmlns="http://www.w3.org/2000/svg">
<circle cx="26" cy="26" r="26" fill="#9C27B0"/>
<g clip-path="url(#clip0)">
<path d="M24.3332 26.8333C23.4141 26.8333 22.6666 26.0858 22.6666 25.1667C22.6666 24.2475 23.4141 23.5 24.3332 23.5C25.2524 23.5 25.9999 24.2475 25.9999 25.1667C25.9999 26.0858 25.2524 26.8333 24.3332 26.8333ZM24.3332 24.75C24.1032 24.75 23.9166 24.9367 23.9166 25.1667C23.9166 25.3967 24.1032 25.5833 24.3332 25.5833C24.5632 25.5833 24.7499 25.3967 24.7499 25.1667C24.7499 24.9367 24.5632 24.75 24.3332 24.75Z" fill="white"/>
<path d="M32.8751 25.7916H25.5834C25.2384 25.7916 24.9584 25.5116 24.9584 25.1666C24.9584 24.8216 25.2384 24.5416 25.5834 24.5416H32.8751C33.2201 24.5416 33.5001 24.8216 33.5001 25.1666C33.5001 25.5116 33.2201 25.7916 32.8751 25.7916Z" fill="white"/>
<path d="M23.0833 25.7916H19.125C18.78 25.7916 18.5 25.5116 18.5 25.1666C18.5 24.8216 18.78 24.5416 19.125 24.5416H23.0833C23.4283 24.5416 23.7083 24.8216 23.7083 25.1666C23.7083 25.5116 23.4283 25.7916 23.0833 25.7916Z" fill="white"/>
<path d="M28.5001 31.8333C27.5809 31.8333 26.8334 31.0858 26.8334 30.1667C26.8334 29.2475 27.5809 28.5 28.5001 28.5C29.4192 28.5 30.1667 29.2475 30.1667 30.1667C30.1667 31.0858 29.4192 31.8333 28.5001 31.8333ZM28.5001 29.75C28.2701 29.75 28.0834 29.9367 28.0834 30.1667C28.0834 30.3967 28.2701 30.5833 28.5001 30.5833C28.7301 30.5833 28.9167 30.3967 28.9167 30.1667C28.9167 29.9367 28.7301 29.75 28.5001 29.75Z" fill="white"/>
<path d="M32.875 30.7916H29.75C29.405 30.7916 29.125 30.5116 29.125 30.1666C29.125 29.8216 29.405 29.5416 29.75 29.5416H32.875C33.22 29.5416 33.5 29.8216 33.5 30.1666C33.5 30.5116 33.22 30.7916 32.875 30.7916Z" fill="white"/>
<path d="M27.25 30.7916H19.125C18.78 30.7916 18.5 30.5116 18.5 30.1666C18.5 29.8216 18.78 29.5416 19.125 29.5416H27.25C27.595 29.5416 27.875 29.8216 27.875 30.1666C27.875 30.5116 27.595 30.7916 27.25 30.7916Z" fill="white"/>
<path d="M33.7083 35.1667H18.2917C17.0275 35.1667 16 34.1392 16 32.875V19.125C16 17.8609 17.0275 16.8334 18.2917 16.8334H33.7083C34.9725 16.8334 36 17.8609 36 19.125V32.875C36 34.1392 34.9725 35.1667 33.7083 35.1667ZM18.2917 18.0834C17.7175 18.0834 17.25 18.5509 17.25 19.125V32.875C17.25 33.4492 17.7175 33.9167 18.2917 33.9167H33.7083C34.2825 33.9167 34.75 33.4492 34.75 32.875V19.125C34.75 18.5509 34.2825 18.0834 33.7083 18.0834H18.2917Z" fill="white"/>
<path d="M35.375 21H16.625C16.28 21 16 20.72 16 20.375C16 20.03 16.28 19.75 16.625 19.75H35.375C35.72 19.75 36 20.03 36 20.375C36 20.72 35.72 21 35.375 21Z" fill="white"/>
</g>
<defs>
<clipPath id="clip0">
<rect width="20" height="20" fill="white" transform="translate(16 16)"/>
</clipPath>
</defs>
</svg>
