<svg width="41" height="40" viewBox="0 0 41 40" fill="none" xmlns="http://www.w3.org/2000/svg">
<rect width="40.0244" height="40" rx="6" fill="black"/>
<path fill-rule="evenodd" clip-rule="evenodd" d="M22.8484 16.9047C22.3715 17.2175 21.8431 17.452 21.2373 17.5823C20.6316 17.7127 20.0127 17.7778 19.3553 17.7778H14.612L15.6689 10.0757H21.1212C22.5133 10.0757 23.4929 10.4534 24.0342 11.2095C24.5755 11.9653 24.7817 12.8514 24.6659 13.8812C24.5627 14.5851 24.3565 15.1843 24.0342 15.6797C23.7119 16.1878 23.3124 16.5921 22.8484 16.9047M24.163 25.48C24.0469 26.4054 23.7506 27.1612 23.2866 27.7218C22.8226 28.2824 22.2941 28.7253 21.6753 29.0641C21.0567 29.39 20.425 29.6114 19.7807 29.7288C19.1231 29.8332 18.5304 29.8983 18.002 29.8983H12.8976L14.1867 20.8798H19.3295C21.0179 20.8798 22.307 21.2708 23.1834 22.0396C24.0469 22.7954 24.382 23.9422 24.163 25.48M26.6639 17.1391C27.6048 16.2011 28.1718 14.9758 28.3654 13.4902C28.5071 12.3956 28.4424 11.431 28.1718 10.61C27.9014 9.78905 27.4502 9.12437 26.8442 8.59003C26.2256 8.06867 25.4653 7.66468 24.5501 7.404C23.6349 7.14332 22.6293 7 21.5211 7H12.6017L9.00537 32.9478H17.8218C19.0849 32.9478 20.2836 32.7915 21.4178 32.4656C22.552 32.1528 23.5705 31.6836 24.4725 31.0711C24.7435 30.8889 25.001 30.6931 25.246 30.4846C25.4781 30.2894 25.6971 30.0676 25.9033 29.8461C25.9162 29.8332 25.9162 29.8332 25.9293 29.8202C26.2128 29.5073 26.4834 29.1685 26.7156 28.8167C26.9862 28.3994 27.2181 27.9565 27.3986 27.4873C27.5403 27.1355 27.6433 26.7572 27.7337 26.3665C27.7465 26.3272 27.7465 26.2883 27.7597 26.2361C27.7979 26.0666 27.8238 25.8973 27.8498 25.7148C27.9014 25.3367 27.9271 24.9719 27.9142 24.6201C27.6307 24.6069 27.3726 24.5679 27.1408 24.5157C26.8958 24.4506 26.6896 24.3724 26.5219 24.268C26.1095 24.0336 25.9033 23.7078 25.9033 23.2778C25.9033 22.8476 26.1095 22.5217 26.5219 22.261C26.5607 22.2351 26.6123 22.2091 26.6511 22.1959C26.8314 22.1047 27.0375 22.0396 27.2825 21.9874C27.1536 21.74 27.0119 21.5052 26.8442 21.2838C26.8185 21.2446 26.78 21.2056 26.7412 21.1664C26.6252 21.0101 26.4834 20.8665 26.3545 20.7232C26.0322 20.3973 25.6712 20.1237 25.2588 19.8893C24.6274 19.5372 23.9441 19.3287 23.1966 19.2897V19.2116C24.5758 18.7814 25.7231 18.0907 26.6639 17.1391M27.7729 23.2908C27.7469 23.1994 27.7212 23.1082 27.6953 23.0171H27.6311C27.6311 23.2515 27.7081 23.46 27.837 23.6426C27.8242 23.5122 27.7982 23.3949 27.7729 23.2908" fill="white"/>
<mask id="path-3-outside-1" maskUnits="userSpaceOnUse" x="24.0264" y="26.0042" width="8" height="8" fill="black">
<rect fill="white" x="24.0264" y="26.0042" width="8" height="8"/>
<path fill-rule="evenodd" clip-rule="evenodd" d="M26.3922 27.439C26.3243 27.439 26.2585 27.4632 26.2066 27.5082C25.9342 27.7441 25.7334 27.9915 25.5925 28.2643C25.3881 28.6415 25.2851 29.1028 25.2851 29.6377C25.2851 30.5403 25.564 31.2739 26.1384 31.8803C26.6974 32.4582 27.4049 32.7394 28.301 32.7394C28.779 32.7394 29.1843 32.656 29.5758 32.4773C29.9651 32.2993 30.2908 32.0389 30.5717 31.6808C30.7671 31.4094 30.9308 31.1038 31.0551 30.7771C31.1601 30.4703 31.214 30.1032 31.214 29.6899C31.214 29.0919 31.0856 28.5659 30.8321 28.1264C30.6701 27.8205 30.4206 27.5575 30.045 27.2948C29.9269 27.2273 29.7455 27.2688 29.6574 27.392C29.5667 27.5318 29.6217 27.7259 29.7313 27.8248C29.9691 27.9736 30.1739 28.1533 30.323 28.3453C30.5512 28.6305 30.6727 28.9742 30.6727 29.3378C30.6727 29.9007 30.4388 30.3653 29.9774 30.7191C29.5302 31.0614 28.957 31.2278 28.2237 31.2278C27.4497 31.2278 26.8574 31.0842 26.413 30.7892C25.963 30.4766 25.736 30.0371 25.736 29.4815C25.736 29.1415 25.8438 28.8139 26.056 28.5074C26.1889 28.3191 26.3363 28.1778 26.5653 28.0186C26.6315 27.9693 26.6783 27.8888 26.6902 27.8003C26.7011 27.7224 26.6831 27.6492 26.6401 27.5938L26.6178 27.5543C26.5722 27.4915 26.5057 27.4514 26.4293 27.4413C26.417 27.4396 26.4045 27.439 26.3922 27.439M28.3004 33.0001C27.345 33.0001 26.555 32.6843 25.9527 32.0617C25.3378 31.4123 25.0264 30.5971 25.0264 29.6377C25.0264 29.0587 25.1402 28.5552 25.3646 28.1414C25.5198 27.8409 25.7405 27.5682 26.0382 27.3101C26.1549 27.2091 26.3089 27.1627 26.4623 27.1829C26.6146 27.2031 26.7467 27.285 26.8342 27.4136L26.8507 27.4442C26.9309 27.5534 26.9645 27.6922 26.9451 27.8355C26.9238 27.9938 26.8393 28.138 26.7139 28.2311C26.5054 28.3759 26.3807 28.495 26.2658 28.6579C26.085 28.9186 25.9932 29.196 25.9932 29.4814C25.9932 29.946 26.1825 30.3134 26.5561 30.5729C26.9551 30.8376 27.501 30.9671 28.2231 30.9671C28.8979 30.9671 29.4206 30.818 29.821 30.5112C30.2146 30.2096 30.4142 29.8148 30.4142 29.3378C30.4142 29.0304 30.3156 28.751 30.1208 28.5076C29.9873 28.3361 29.8028 28.1754 29.5866 28.0416L29.5706 28.0298C29.3433 27.8355 29.2866 27.484 29.4434 27.2458L29.4457 27.2423C29.61 27.0099 29.94 26.9346 30.1818 27.0745C30.6016 27.3675 30.8765 27.6596 31.0565 27.9993C31.3308 28.4748 31.4712 29.0452 31.4712 29.6899C31.4712 30.132 31.4124 30.5279 31.2966 30.8665C31.1626 31.2185 30.988 31.5444 30.7764 31.8385C30.4701 32.229 30.1028 32.5222 29.6813 32.7149C29.2552 32.9095 28.8163 33.0001 28.3004 33.0001"/>
</mask>
<path fill-rule="evenodd" clip-rule="evenodd" d="M26.3922 27.439C26.3243 27.439 26.2585 27.4632 26.2066 27.5082C25.9342 27.7441 25.7334 27.9915 25.5925 28.2643C25.3881 28.6415 25.2851 29.1028 25.2851 29.6377C25.2851 30.5403 25.564 31.2739 26.1384 31.8803C26.6974 32.4582 27.4049 32.7394 28.301 32.7394C28.779 32.7394 29.1843 32.656 29.5758 32.4773C29.9651 32.2993 30.2908 32.0389 30.5717 31.6808C30.7671 31.4094 30.9308 31.1038 31.0551 30.7771C31.1601 30.4703 31.214 30.1032 31.214 29.6899C31.214 29.0919 31.0856 28.5659 30.8321 28.1264C30.6701 27.8205 30.4206 27.5575 30.045 27.2948C29.9269 27.2273 29.7455 27.2688 29.6574 27.392C29.5667 27.5318 29.6217 27.7259 29.7313 27.8248C29.9691 27.9736 30.1739 28.1533 30.323 28.3453C30.5512 28.6305 30.6727 28.9742 30.6727 29.3378C30.6727 29.9007 30.4388 30.3653 29.9774 30.7191C29.5302 31.0614 28.957 31.2278 28.2237 31.2278C27.4497 31.2278 26.8574 31.0842 26.413 30.7892C25.963 30.4766 25.736 30.0371 25.736 29.4815C25.736 29.1415 25.8438 28.8139 26.056 28.5074C26.1889 28.3191 26.3363 28.1778 26.5653 28.0186C26.6315 27.9693 26.6783 27.8888 26.6902 27.8003C26.7011 27.7224 26.6831 27.6492 26.6401 27.5938L26.6178 27.5543C26.5722 27.4915 26.5057 27.4514 26.4293 27.4413C26.417 27.4396 26.4045 27.439 26.3922 27.439M28.3004 33.0001C27.345 33.0001 26.555 32.6843 25.9527 32.0617C25.3378 31.4123 25.0264 30.5971 25.0264 29.6377C25.0264 29.0587 25.1402 28.5552 25.3646 28.1414C25.5198 27.8409 25.7405 27.5682 26.0382 27.3101C26.1549 27.2091 26.3089 27.1627 26.4623 27.1829C26.6146 27.2031 26.7467 27.285 26.8342 27.4136L26.8507 27.4442C26.9309 27.5534 26.9645 27.6922 26.9451 27.8355C26.9238 27.9938 26.8393 28.138 26.7139 28.2311C26.5054 28.3759 26.3807 28.495 26.2658 28.6579C26.085 28.9186 25.9932 29.196 25.9932 29.4814C25.9932 29.946 26.1825 30.3134 26.5561 30.5729C26.9551 30.8376 27.501 30.9671 28.2231 30.9671C28.8979 30.9671 29.4206 30.818 29.821 30.5112C30.2146 30.2096 30.4142 29.8148 30.4142 29.3378C30.4142 29.0304 30.3156 28.751 30.1208 28.5076C29.9873 28.3361 29.8028 28.1754 29.5866 28.0416L29.5706 28.0298C29.3433 27.8355 29.2866 27.484 29.4434 27.2458L29.4457 27.2423C29.61 27.0099 29.94 26.9346 30.1818 27.0745C30.6016 27.3675 30.8765 27.6596 31.0565 27.9993C31.3308 28.4748 31.4712 29.0452 31.4712 29.6899C31.4712 30.132 31.4124 30.5279 31.2966 30.8665C31.1626 31.2185 30.988 31.5444 30.7764 31.8385C30.4701 32.229 30.1028 32.5222 29.6813 32.7149C29.2552 32.9095 28.8163 33.0001 28.3004 33.0001" fill="white"/>
<path d="M26.2066 27.5082L26.3375 27.6594L26.3375 27.6593L26.2066 27.5082ZM25.5925 28.2643L25.7684 28.3596L25.7702 28.356L25.5925 28.2643ZM26.1384 31.8803L25.9932 32.0179L25.9946 32.0194L26.1384 31.8803ZM29.5758 32.4773L29.6589 32.6592L29.659 32.6592L29.5758 32.4773ZM30.5717 31.6808L30.7292 31.8043L30.734 31.7977L30.5717 31.6808ZM31.0551 30.7771L31.2421 30.8482L31.2444 30.8418L31.0551 30.7771ZM30.8321 28.1264L30.6552 28.2201L30.6589 28.2264L30.8321 28.1264ZM30.045 27.2948L30.1596 27.1309L30.1521 27.1257L30.1442 27.1212L30.045 27.2948ZM29.6574 27.392L29.4946 27.2755L29.4896 27.2832L29.6574 27.392ZM29.7313 27.8248L29.5972 27.9732L29.6103 27.985L29.6252 27.9944L29.7313 27.8248ZM30.323 28.3453L30.1651 28.468L30.1669 28.4702L30.323 28.3453ZM29.9774 30.7191L30.0989 30.8779L30.0991 30.8778L29.9774 30.7191ZM26.413 30.7892L26.2989 30.9535L26.3024 30.9558L26.413 30.7892ZM26.056 28.5074L25.8926 28.392L25.8915 28.3935L26.056 28.5074ZM26.5653 28.0186L26.6795 28.1829L26.6848 28.179L26.5653 28.0186ZM26.6902 27.8003L26.4922 27.7727L26.4921 27.7735L26.6902 27.8003ZM26.6401 27.5938L26.4658 27.692L26.4731 27.7049L26.4822 27.7166L26.6401 27.5938ZM26.6178 27.5543L26.7921 27.4562L26.7864 27.4462L26.7797 27.4368L26.6178 27.5543ZM26.4293 27.4413L26.4014 27.6393L26.4031 27.6396L26.4293 27.4413ZM25.9527 32.0617L25.8074 32.1992L25.8089 32.2008L25.9527 32.0617ZM25.3646 28.1414L25.5404 28.2368L25.5423 28.2332L25.3646 28.1414ZM26.0382 27.3101L25.9074 27.1588L25.9072 27.1589L26.0382 27.3101ZM26.4623 27.1829L26.4886 26.9846L26.4884 26.9846L26.4623 27.1829ZM26.8342 27.4136L27.0101 27.3184L27.0053 27.3095L26.9995 27.301L26.8342 27.4136ZM26.8507 27.4442L26.6748 27.5393L26.6814 27.5514L26.6895 27.5624L26.8507 27.4442ZM26.9451 27.8355L26.747 27.8086L26.7469 27.8087L26.9451 27.8355ZM26.7139 28.2311L26.828 28.3955L26.8331 28.3917L26.7139 28.2311ZM26.2658 28.6579L26.1024 28.5426L26.1015 28.5439L26.2658 28.6579ZM26.5561 30.5729L26.442 30.7372L26.4456 30.7396L26.5561 30.5729ZM29.821 30.5112L29.9427 30.6699L29.9427 30.6699L29.821 30.5112ZM30.1208 28.5076L29.9629 28.6305L29.9646 28.6326L30.1208 28.5076ZM29.5866 28.0416L29.4676 28.2024L29.4743 28.2073L29.4813 28.2117L29.5866 28.0416ZM29.5706 28.0298L29.4403 28.1822L29.4516 28.1906L29.5706 28.0298ZM29.4434 27.2458L29.2765 27.1357L29.2764 27.1358L29.4434 27.2458ZM29.4457 27.2423L29.2823 27.1268L29.2787 27.1322L29.4457 27.2423ZM30.1818 27.0745L30.2963 26.9105L30.2893 26.9056L30.2819 26.9013L30.1818 27.0745ZM31.0565 27.9993L30.8796 28.0929L30.8833 28.0992L31.0565 27.9993ZM31.2966 30.8665L31.4836 30.9377L31.4859 30.9312L31.2966 30.8665ZM30.7764 31.8385L30.9339 31.9621L30.9388 31.9553L30.7764 31.8385ZM29.6813 32.7149L29.7644 32.8968L29.7644 32.8968L29.6813 32.7149ZM26.3922 27.239C26.2766 27.239 26.1641 27.2803 26.0756 27.357L26.3375 27.6593C26.3528 27.6461 26.3721 27.639 26.3922 27.639V27.239ZM26.0756 27.357C25.7873 27.6067 25.5692 27.8736 25.4148 28.1725L25.7702 28.356C25.8976 28.1094 26.0811 27.8814 26.3375 27.6594L26.0756 27.357ZM25.4167 28.169C25.1929 28.5819 25.0851 29.0778 25.0851 29.6377H25.4851C25.4851 29.1279 25.5833 28.701 25.7684 28.3596L25.4167 28.169ZM25.0851 29.6377C25.0851 30.5869 25.3806 31.3711 25.9932 32.0179L26.2836 31.7428C25.7474 31.1767 25.4851 30.4937 25.4851 29.6377H25.0851ZM25.9946 32.0194C26.5958 32.6409 27.3575 32.9394 28.301 32.9394V32.5394C27.4523 32.5394 26.799 32.2756 26.2821 31.7413L25.9946 32.0194ZM28.301 32.9394C28.8045 32.9394 29.2385 32.8511 29.6589 32.6592L29.4928 32.2953C29.13 32.4609 28.7535 32.5394 28.301 32.5394V32.9394ZM29.659 32.6592C30.0791 32.4671 30.4297 32.1859 30.7291 31.8042L30.4144 31.5574C30.1519 31.892 29.8511 32.1315 29.4927 32.2954L29.659 32.6592ZM30.734 31.7977C30.9399 31.5117 31.1118 31.1905 31.242 30.8482L30.8682 30.7059C30.7498 31.017 30.5942 31.3072 30.4094 31.5639L30.734 31.7977ZM31.2444 30.8418C31.358 30.5094 31.414 30.1196 31.414 29.6899H31.014C31.014 30.0867 30.9621 30.4311 30.8659 30.7123L31.2444 30.8418ZM31.414 29.6899C31.414 29.0632 31.2793 28.5014 31.0053 28.0265L30.6589 28.2264C30.8919 28.6304 31.014 29.1206 31.014 29.6899H31.414ZM31.0089 28.0329C30.8279 27.6911 30.5529 27.406 30.1596 27.1309L29.9303 27.4587C30.2883 27.709 30.5123 27.9499 30.6553 28.22L31.0089 28.0329ZM30.1442 27.1212C30.0323 27.0572 29.9031 27.0507 29.7926 27.0776C29.681 27.1048 29.5701 27.1703 29.4948 27.2756L29.82 27.5084C29.8328 27.4906 29.8566 27.4737 29.8873 27.4662C29.9191 27.4585 29.9396 27.4649 29.9457 27.4684L30.1442 27.1212ZM29.4896 27.2832C29.41 27.4059 29.399 27.5455 29.4233 27.664C29.4474 27.7812 29.5087 27.8933 29.5972 27.9732L29.8653 27.6764C29.8443 27.6574 29.8233 27.623 29.8151 27.5835C29.8073 27.5453 29.8141 27.5179 29.8252 27.5008L29.4896 27.2832ZM29.6252 27.9944C29.8464 28.1327 30.0325 28.2973 30.1651 28.468L30.481 28.2226C30.3152 28.0092 30.0918 27.8145 29.8373 27.6553L29.6252 27.9944ZM30.1669 28.4702C30.3669 28.7203 30.4727 29.0201 30.4727 29.3378H30.8727C30.8727 28.9284 30.7354 28.5407 30.4792 28.2204L30.1669 28.4702ZM30.4727 29.3378C30.4727 29.8362 30.2697 30.243 29.8557 30.5604L30.0991 30.8778C30.608 30.4876 30.8727 29.9653 30.8727 29.3378H30.4727ZM29.8558 30.5603C29.4528 30.8688 28.9263 31.0278 28.2237 31.0278V31.4278C28.9876 31.4278 29.6076 31.254 30.0989 30.8779L29.8558 30.5603ZM28.2237 31.0278C27.4722 31.0278 26.9235 30.888 26.5237 30.6226L26.3024 30.9558C26.7912 31.2803 27.4272 31.4278 28.2237 31.4278V31.0278ZM26.5271 30.6249C26.132 30.3505 25.936 29.9729 25.936 29.4815H25.536C25.536 30.1013 25.794 30.6027 26.2989 30.9534L26.5271 30.6249ZM25.936 29.4815C25.936 29.1862 26.029 28.8978 26.2204 28.6212L25.8915 28.3935C25.6586 28.73 25.536 29.0968 25.536 29.4815H25.936ZM26.2194 28.6227C26.3363 28.457 26.4656 28.3315 26.6795 28.1828L26.4512 27.8544C26.207 28.0241 26.0415 28.1811 25.8926 28.392L26.2194 28.6227ZM26.6848 28.179C26.7966 28.0957 26.8697 27.9658 26.8884 27.8271L26.4921 27.7735C26.4869 27.8119 26.4664 27.8429 26.4458 27.8582L26.6848 28.179ZM26.8883 27.8279C26.9057 27.7031 26.878 27.574 26.7979 27.471L26.4822 27.7166C26.4882 27.7244 26.4965 27.7418 26.4922 27.7727L26.8883 27.8279ZM26.8143 27.4957L26.7921 27.4562L26.4435 27.6525L26.4658 27.692L26.8143 27.4957ZM26.7797 27.4368C26.7024 27.3305 26.5874 27.2604 26.4555 27.243L26.4031 27.6396C26.4241 27.6423 26.4419 27.6525 26.456 27.6718L26.7797 27.4368ZM26.4572 27.2432C26.4328 27.2398 26.4103 27.239 26.3922 27.239V27.639C26.3953 27.639 26.3975 27.6391 26.3992 27.6391C26.4008 27.6392 26.4015 27.6393 26.4014 27.6393L26.4572 27.2432ZM28.3004 32.8001C27.393 32.8001 26.657 32.5021 26.0964 31.9227L25.8089 32.2008C26.453 32.8665 27.2969 33.2001 28.3004 33.2001V32.8001ZM26.0979 31.9242C25.5209 31.3148 25.2264 30.5501 25.2264 29.6377H24.8264C24.8264 30.6442 25.1547 31.5098 25.8074 32.1992L26.0979 31.9242ZM25.2264 29.6377C25.2264 29.0844 25.3351 28.6153 25.5404 28.2368L25.1888 28.0461C24.9452 28.4951 24.8264 29.033 24.8264 29.6377H25.2264ZM25.5423 28.2332C25.6841 27.9586 25.8877 27.7053 26.1692 27.4612L25.9072 27.1589C25.5933 27.4311 25.3554 27.7233 25.1869 28.0497L25.5423 28.2332ZM26.1691 27.4613C26.2426 27.3977 26.3396 27.3685 26.4362 27.3812L26.4884 26.9846C26.2782 26.957 26.0671 27.0206 25.9074 27.1588L26.1691 27.4613ZM26.436 27.3812C26.5311 27.3938 26.6129 27.4439 26.6689 27.5261L26.9995 27.301C26.8804 27.126 26.6981 27.0124 26.4886 26.9846L26.436 27.3812ZM26.6583 27.5088L26.6748 27.5393L27.0266 27.349L27.0101 27.3184L26.6583 27.5088ZM26.6895 27.5624C26.737 27.6272 26.7599 27.7132 26.747 27.8086L27.1433 27.8623C27.1692 27.6711 27.1248 27.4797 27.012 27.3259L26.6895 27.5624ZM26.7469 27.8087C26.7326 27.9147 26.6759 28.0102 26.5947 28.0705L26.8331 28.3917C27.0028 28.2657 27.1149 28.0728 27.1433 27.8622L26.7469 27.8087ZM26.5998 28.0668C26.3769 28.2216 26.2338 28.3564 26.1024 28.5426L26.4292 28.7732C26.5277 28.6336 26.6339 28.5301 26.8279 28.3954L26.5998 28.0668ZM26.1015 28.5439C25.9001 28.8342 25.7932 29.1507 25.7932 29.4814H26.1932C26.1932 29.2412 26.2699 29.003 26.4302 28.7719L26.1015 28.5439ZM25.7932 29.4814C25.7932 30.0098 26.0132 30.4393 26.442 30.7372L26.6702 30.4086C26.3518 30.1875 26.1932 29.8822 26.1932 29.4814H25.7932ZM26.4456 30.7396C26.89 31.0344 27.4802 31.1671 28.2231 31.1671V30.7671C27.5218 30.7671 27.0203 30.6408 26.6667 30.4062L26.4456 30.7396ZM28.2231 31.1671C28.927 31.1671 29.4972 31.0113 29.9427 30.6699L29.6994 30.3524C29.344 30.6247 28.8687 30.7671 28.2231 30.7671V31.1671ZM29.9427 30.6699C30.3833 30.3322 30.6142 29.8799 30.6142 29.3378H30.2142C30.2142 29.7497 30.0459 30.0869 29.6994 30.3524L29.9427 30.6699ZM30.6142 29.3378C30.6142 28.9844 30.4997 28.661 30.2769 28.3827L29.9646 28.6326C30.1314 28.841 30.2142 29.0765 30.2142 29.3378H30.6142ZM30.2786 28.3848C30.1282 28.1915 29.9247 28.0157 29.6919 27.8716L29.4813 28.2117C29.6809 28.3352 29.8464 28.4807 29.9629 28.6304L30.2786 28.3848ZM29.7056 27.8809L29.6896 27.8691L29.4516 28.1906L29.4676 28.2024L29.7056 27.8809ZM29.7006 27.8778C29.5444 27.7443 29.5129 27.5039 29.6105 27.3558L29.2764 27.1358C29.0602 27.464 29.1422 27.9267 29.4407 28.1818L29.7006 27.8778ZM29.6104 27.3559L29.6127 27.3524L29.2787 27.1322L29.2765 27.1357L29.6104 27.3559ZM29.609 27.3577C29.7154 27.2072 29.932 27.1611 30.0817 27.2476L30.2819 26.9013C29.9479 26.7082 29.5046 26.8125 29.2824 27.1269L29.609 27.3577ZM30.0673 27.2385C30.4689 27.5188 30.7186 27.7886 30.8798 28.0929L31.2332 27.9056C31.0345 27.5305 30.7343 27.2162 30.2963 26.9105L30.0673 27.2385ZM30.8833 28.0992C31.1373 28.5395 31.2712 29.0742 31.2712 29.6899H31.6712C31.6712 29.0161 31.5244 28.41 31.2297 27.8993L30.8833 28.0992ZM31.2712 29.6899C31.2712 30.1149 31.2146 30.4883 31.1074 30.8017L31.4859 30.9312C31.6102 30.5676 31.6712 30.149 31.6712 29.6899H31.2712ZM31.1097 30.7953C30.9816 31.1317 30.8152 31.4422 30.6141 31.7217L30.9388 31.9553C31.1609 31.6466 31.3435 31.3053 31.4835 30.9376L31.1097 30.7953ZM30.6191 31.7151C30.3312 32.082 29.9888 32.3544 29.5982 32.533L29.7644 32.8968C30.2168 32.69 30.6091 32.3759 30.9338 31.962L30.6191 31.7151ZM29.5982 32.5329C29.2008 32.7145 28.7906 32.8001 28.3004 32.8001V33.2001C28.842 33.2001 29.3096 33.1045 29.7644 32.8968L29.5982 32.5329Z" fill="white" mask="url(#path-3-outside-1)"/>
<mask id="path-5-outside-2" maskUnits="userSpaceOnUse" x="24.0791" y="18.9677" width="8" height="8" fill="black">
<rect fill="white" x="24.0791" y="18.9677" width="8" height="8"/>
<path fill-rule="evenodd" clip-rule="evenodd" d="M27.3245 22.1408C27.5821 22.0816 27.8889 22.0528 28.2625 22.0528C28.9553 22.0528 29.5148 22.1742 29.9241 22.4127C30.3031 22.6402 30.4793 22.9274 30.4793 23.317C30.4793 23.6613 30.2925 23.9479 29.9241 24.1694C29.5265 24.4079 28.9675 24.529 28.2625 24.529C28.1476 24.529 28.0387 24.529 27.9334 24.516C27.683 24.5045 27.4301 24.4704 27.1871 24.4159C26.9398 24.3502 26.749 24.2743 26.5987 24.1809C26.2265 23.9693 26.0457 23.6823 26.0457 23.304C26.0457 22.9265 26.2231 22.6385 26.607 22.3957C26.6361 22.3763 26.6772 22.3553 26.7051 22.3461L26.7222 22.3389C26.8845 22.2567 27.0753 22.1938 27.3245 22.1408ZM27.7419 26.5345C27.9239 26.5611 28.1118 26.5882 28.3146 26.5882C28.8131 26.5882 29.2384 26.5063 29.6579 26.3284C30.0725 26.1326 30.4327 25.8681 30.7299 25.5417C30.9635 25.281 31.1566 24.9485 31.3223 24.5229C31.4646 24.1434 31.5364 23.7288 31.5364 23.283C31.5145 22.9167 31.4686 22.4435 31.3089 22.0318C31.154 21.6188 30.9604 21.2858 30.7165 21.0133C30.3988 20.6643 30.0469 20.4109 29.6402 20.2384C29.2047 20.0536 28.7792 19.9677 28.3015 19.9677C27.7839 19.9677 27.3535 20.0542 26.9448 20.2407C26.6736 20.3699 26.4777 20.4922 26.3134 20.6349C26.1645 20.7552 26.0334 20.8786 25.929 20.9962L25.8879 21.0378C25.6612 21.2791 25.467 21.6128 25.2939 22.0589C25.1513 22.4383 25.0791 22.8527 25.0791 23.2907C25.0791 23.7527 25.1564 24.1688 25.3067 24.5229C25.4644 24.9436 25.6589 25.2735 25.8993 25.5296C26.217 25.8785 26.5692 26.132 26.9734 26.3033C27.1867 26.399 27.4214 26.4699 27.7419 26.5345Z"/>
</mask>
<path fill-rule="evenodd" clip-rule="evenodd" d="M27.3245 22.1408C27.5821 22.0816 27.8889 22.0528 28.2625 22.0528C28.9553 22.0528 29.5148 22.1742 29.9241 22.4127C30.3031 22.6402 30.4793 22.9274 30.4793 23.317C30.4793 23.6613 30.2925 23.9479 29.9241 24.1694C29.5265 24.4079 28.9675 24.529 28.2625 24.529C28.1476 24.529 28.0387 24.529 27.9334 24.516C27.683 24.5045 27.4301 24.4704 27.1871 24.4159C26.9398 24.3502 26.749 24.2743 26.5987 24.1809C26.2265 23.9693 26.0457 23.6823 26.0457 23.304C26.0457 22.9265 26.2231 22.6385 26.607 22.3957C26.6361 22.3763 26.6772 22.3553 26.7051 22.3461L26.7222 22.3389C26.8845 22.2567 27.0753 22.1938 27.3245 22.1408ZM27.7419 26.5345C27.9239 26.5611 28.1118 26.5882 28.3146 26.5882C28.8131 26.5882 29.2384 26.5063 29.6579 26.3284C30.0725 26.1326 30.4327 25.8681 30.7299 25.5417C30.9635 25.281 31.1566 24.9485 31.3223 24.5229C31.4646 24.1434 31.5364 23.7288 31.5364 23.283C31.5145 22.9167 31.4686 22.4435 31.3089 22.0318C31.154 21.6188 30.9604 21.2858 30.7165 21.0133C30.3988 20.6643 30.0469 20.4109 29.6402 20.2384C29.2047 20.0536 28.7792 19.9677 28.3015 19.9677C27.7839 19.9677 27.3535 20.0542 26.9448 20.2407C26.6736 20.3699 26.4777 20.4922 26.3134 20.6349C26.1645 20.7552 26.0334 20.8786 25.929 20.9962L25.8879 21.0378C25.6612 21.2791 25.467 21.6128 25.2939 22.0589C25.1513 22.4383 25.0791 22.8527 25.0791 23.2907C25.0791 23.7527 25.1564 24.1688 25.3067 24.5229C25.4644 24.9436 25.6589 25.2735 25.8993 25.5296C26.217 25.8785 26.5692 26.132 26.9734 26.3033C27.1867 26.399 27.4214 26.4699 27.7419 26.5345Z" fill="white"/>
<path d="M27.3245 22.1408L27.3662 22.3364L27.3693 22.3357L27.3245 22.1408ZM29.9241 22.4127L30.027 22.2412L30.0248 22.2399L29.9241 22.4127ZM29.9241 24.1694L30.027 24.3409L30.0271 24.3408L29.9241 24.1694ZM27.9334 24.516L27.9579 24.3175L27.9503 24.3166L27.9426 24.3162L27.9334 24.516ZM27.1871 24.4159L27.1356 24.6094L27.1433 24.6111L27.1871 24.4159ZM26.5987 24.1809L26.7044 24.0109L26.6976 24.0071L26.5987 24.1809ZM26.607 22.3957L26.7139 22.5647L26.7176 22.5623L26.607 22.3957ZM26.7051 22.3461L26.7678 22.536L26.7754 22.5335L26.7828 22.5304L26.7051 22.3461ZM26.7222 22.3389L26.8001 22.5236L26.8126 22.5173L26.7222 22.3389ZM27.7419 26.5345L27.7024 26.7309L27.7131 26.7324L27.7419 26.5345ZM29.6579 26.3284L29.736 26.5126L29.7433 26.5092L29.6579 26.3284ZM30.7299 25.5417L30.8778 25.6764L30.8789 25.6752L30.7299 25.5417ZM31.3223 24.5229L31.5086 24.5955L31.5095 24.5931L31.3223 24.5229ZM31.5364 23.283H31.7368L31.7361 23.271L31.5364 23.283ZM31.3089 22.0318L31.1216 22.102L31.1224 22.1041L31.3089 22.0318ZM30.7165 21.0133L30.8656 20.8799L30.8644 20.8786L30.7165 21.0133ZM29.6402 20.2384L29.5621 20.4225L29.5621 20.4226L29.6402 20.2384ZM26.9448 20.2407L26.8618 20.0588L26.8588 20.0602L26.9448 20.2407ZM26.3134 20.6349L26.4392 20.7906L26.4446 20.7859L26.3134 20.6349ZM25.929 20.9962L26.0714 21.1371L26.0786 21.129L25.929 20.9962ZM25.8879 21.0378L25.7457 20.8971L25.7421 20.9008L25.8879 21.0378ZM25.2939 22.0589L25.1074 21.9865L25.1066 21.9885L25.2939 22.0589ZM25.3067 24.5229L25.4941 24.4527L25.4908 24.4448L25.3067 24.5229ZM25.8993 25.5296L26.0472 25.3949L26.0451 25.3927L25.8993 25.5296ZM26.9734 26.3033L27.0553 26.1208L27.0514 26.1191L26.9734 26.3033ZM28.2625 21.8528C27.8795 21.8528 27.5566 21.8823 27.2798 21.9458L27.3693 22.3357C27.6075 22.281 27.8984 22.2528 28.2625 22.2528V21.8528ZM30.0248 22.2399C29.574 21.9772 28.9754 21.8528 28.2625 21.8528V22.2528C28.9351 22.2528 29.4556 22.3712 29.8234 22.5855L30.0248 22.2399ZM30.6793 23.317C30.6793 23.0904 30.6276 22.8839 30.5143 22.6994C30.4019 22.5164 30.2364 22.3669 30.027 22.2412L29.8211 22.5842C29.9908 22.686 30.1029 22.7939 30.1734 22.9087C30.243 23.0221 30.2793 23.154 30.2793 23.317H30.6793ZM30.0271 24.3408C30.4384 24.0936 30.6793 23.7496 30.6793 23.317H30.2793C30.2793 23.573 30.1467 23.8022 29.821 23.998L30.0271 24.3408ZM28.2625 24.729C28.9864 24.729 29.5862 24.6053 30.027 24.3409L29.8212 23.9979C29.4668 24.2104 28.9487 24.329 28.2625 24.329V24.729ZM27.909 24.7145C28.0285 24.7292 28.1501 24.729 28.2625 24.729V24.329C28.1451 24.329 28.0488 24.3287 27.9579 24.3175L27.909 24.7145ZM27.1433 24.6111C27.3976 24.6681 27.6622 24.7037 27.9242 24.7158L27.9426 24.3162C27.7039 24.3052 27.4625 24.2727 27.2309 24.2208L27.1433 24.6111ZM26.4931 24.3508C26.6661 24.4583 26.8774 24.5405 27.1357 24.6092L27.2385 24.2227C27.0022 24.1598 26.8319 24.0904 26.7043 24.0111L26.4931 24.3508ZM25.8457 23.304C25.8457 23.5267 25.8995 23.7308 26.0135 23.9116C26.1267 24.0911 26.2923 24.2367 26.4999 24.3548L26.6976 24.0071C26.533 23.9135 26.4221 23.8098 26.3518 23.6983C26.2824 23.5881 26.2457 23.4596 26.2457 23.304H25.8457ZM26.5001 22.2266C26.2902 22.3594 26.1247 22.5121 26.0122 22.6943C25.8986 22.8784 25.8457 23.0819 25.8457 23.304H26.2457C26.2457 23.1487 26.2816 23.0194 26.3526 22.9044C26.4248 22.7875 26.5399 22.6747 26.7139 22.5647L26.5001 22.2266ZM26.6424 22.1561C26.5934 22.1723 26.5362 22.2026 26.4963 22.2291L26.7176 22.5623C26.7247 22.5576 26.7354 22.5513 26.747 22.5454C26.7526 22.5426 26.7576 22.5402 26.7617 22.5385C26.766 22.5366 26.768 22.5359 26.7678 22.536L26.6424 22.1561ZM26.6446 22.1545L26.6275 22.1618L26.7828 22.5304L26.7999 22.5232L26.6446 22.1545ZM27.2829 21.9451C27.0228 22.0005 26.8143 22.0681 26.6319 22.1604L26.8126 22.5173C26.9547 22.4453 27.1278 22.3871 27.3662 22.3364L27.2829 21.9451ZM28.3146 26.3882C28.1284 26.3882 27.9541 26.3634 27.7708 26.3366L27.7131 26.7324C27.8937 26.7588 28.0953 26.7882 28.3146 26.7882V26.3882ZM29.5798 26.1442C29.1873 26.3107 28.789 26.3882 28.3146 26.3882V26.7882C28.8373 26.7882 29.2894 26.7019 29.736 26.5125L29.5798 26.1442ZM30.582 25.4071C30.3031 25.7134 29.9644 25.9625 29.5725 26.1475L29.7433 26.5092C30.1807 26.3027 30.5624 26.0228 30.8778 25.6763L30.582 25.4071ZM31.1359 24.4504C30.9763 24.8602 30.7944 25.1701 30.581 25.4082L30.8789 25.6752C31.1326 25.392 31.3368 25.0369 31.5086 24.5955L31.1359 24.4504ZM31.3364 23.283C31.3364 23.7071 31.2681 24.0977 31.135 24.4527L31.5095 24.5931C31.661 24.1892 31.7364 23.7505 31.7364 23.283H31.3364ZM31.1224 22.1041C31.27 22.4847 31.315 22.931 31.3368 23.2949L31.7361 23.271C31.714 22.9025 31.6671 22.4024 31.4953 21.9594L31.1224 22.1041ZM30.5675 21.1466C30.7917 21.3972 30.9737 21.7076 31.1216 22.102L31.4961 21.9615C31.3343 21.53 31.129 21.1743 30.8656 20.8799L30.5675 21.1466ZM29.5621 20.4226C29.9404 20.583 30.269 20.8188 30.5686 21.1479L30.8644 20.8786C30.5286 20.5099 30.1533 20.2388 29.7183 20.0543L29.5621 20.4226ZM28.3015 20.1677C28.7527 20.1677 29.1516 20.2483 29.5621 20.4225L29.7183 20.0543C29.2578 19.8589 28.8057 19.7677 28.3015 19.7677V20.1677ZM27.0279 20.4227C27.4068 20.2497 27.8081 20.1677 28.3015 20.1677V19.7677C27.7596 19.7677 27.3003 19.8586 26.8618 20.0588L27.0279 20.4227ZM26.4446 20.7859C26.5911 20.6586 26.7702 20.5454 27.0308 20.4213L26.8588 20.0602C26.577 20.1944 26.3642 20.3258 26.1822 20.484L26.4446 20.7859ZM26.0786 21.129C26.1743 21.0211 26.2971 20.9052 26.4391 20.7905L26.1877 20.4793C26.032 20.6052 25.8924 20.7361 25.7794 20.8635L26.0786 21.129ZM26.0301 21.1784L26.0712 21.1369L25.7868 20.8556L25.7457 20.8971L26.0301 21.1784ZM25.4803 22.1312C25.6479 21.6993 25.8305 21.391 26.0337 21.1747L25.7421 20.9008C25.4919 21.1672 25.286 21.5262 25.1074 21.9865L25.4803 22.1312ZM25.2791 23.2907C25.2791 22.8748 25.3476 22.4844 25.4811 22.1292L25.1066 21.9885C24.9549 22.3923 24.8791 22.8307 24.8791 23.2907H25.2791ZM25.4908 24.4448C25.3528 24.1197 25.2791 23.7309 25.2791 23.2907H24.8791C24.8791 23.7745 24.96 24.218 25.1226 24.6011L25.4908 24.4448ZM26.0451 25.3927C25.827 25.1604 25.6448 24.8552 25.494 24.4527L25.1194 24.5931C25.284 25.0321 25.4908 25.3867 25.7535 25.6665L26.0451 25.3927ZM27.0514 26.1191C26.6757 25.9599 26.3469 25.7241 26.0472 25.3949L25.7514 25.6642C26.0872 26.033 26.4627 26.3041 26.8953 26.4874L27.0514 26.1191ZM27.7815 26.3385C27.4704 26.2758 27.251 26.2087 27.0552 26.1208L26.8915 26.4857C27.1224 26.5894 27.3723 26.6641 27.7024 26.7306L27.7815 26.3385Z" fill="white" mask="url(#path-5-outside-2)"/>
<mask id="path-7-outside-3" maskUnits="userSpaceOnUse" x="28.8608" y="16.9475" width="3" height="3" fill="black">
<rect fill="white" x="28.8608" y="16.9475" width="3" height="3"/>
<path fill-rule="evenodd" clip-rule="evenodd" d="M31.2788 18.6511C31.2788 18.8336 31.2144 19.0292 31.0723 19.1595C30.9306 19.3028 30.7632 19.381 30.5701 19.381C30.3765 19.381 30.1962 19.3158 30.0673 19.1725C29.9256 19.0292 29.8608 18.8596 29.8608 18.6641C29.8608 18.4686 29.9256 18.2863 30.0673 18.156C30.2091 18.0127 30.3765 17.9475 30.5701 17.9475C30.7632 17.9475 30.9437 18.0127 31.0723 18.156C31.2144 18.2731 31.2788 18.4426 31.2788 18.6511"/>
</mask>
<path fill-rule="evenodd" clip-rule="evenodd" d="M31.2788 18.6511C31.2788 18.8336 31.2144 19.0292 31.0723 19.1595C30.9306 19.3028 30.7632 19.381 30.5701 19.381C30.3765 19.381 30.1962 19.3158 30.0673 19.1725C29.9256 19.0292 29.8608 18.8596 29.8608 18.6641C29.8608 18.4686 29.9256 18.2863 30.0673 18.156C30.2091 18.0127 30.3765 17.9475 30.5701 17.9475C30.7632 17.9475 30.9437 18.0127 31.0723 18.156C31.2144 18.2731 31.2788 18.4426 31.2788 18.6511" fill="white"/>
<path d="M31.0723 19.1595L30.937 19.012L30.9301 19.0189L31.0723 19.1595ZM30.0673 19.1725L30.2162 19.0386L30.2095 19.0318L30.0673 19.1725ZM30.0673 18.156L30.2028 18.3034L30.2095 18.2966L30.0673 18.156ZM31.0723 18.156L30.9235 18.2896L30.9335 18.3008L30.9451 18.3103L31.0723 18.156ZM31.0788 18.6511C31.0788 18.792 31.0284 18.9284 30.9371 19.0121L31.2076 19.3069C31.4004 19.1299 31.4788 18.8753 31.4788 18.6511H31.0788ZM30.9301 19.0189C30.8207 19.1295 30.7027 19.181 30.5701 19.181V19.581C30.8237 19.581 31.0405 19.4761 31.2145 19.3001L30.9301 19.0189ZM30.5701 19.181C30.4216 19.181 30.2999 19.132 30.216 19.0387L29.9186 19.3062C30.0926 19.4996 30.3313 19.581 30.5701 19.581V19.181ZM30.2095 19.0318C30.1067 18.9279 30.0608 18.8097 30.0608 18.6641H29.6608C29.6608 18.9095 29.7445 19.1305 29.9251 19.3131L30.2095 19.0318ZM30.0608 18.6641C30.0608 18.5126 30.1102 18.3883 30.2027 18.3032L29.9319 18.0088C29.741 18.1844 29.6608 18.4246 29.6608 18.6641H30.0608ZM30.2095 18.2966C30.3121 18.1929 30.4276 18.1475 30.5701 18.1475V17.7475C30.3253 17.7475 30.106 17.8325 29.9251 18.0154L30.2095 18.2966ZM30.5701 18.1475C30.7181 18.1475 30.84 18.1965 30.9235 18.2896L31.2212 18.0224C31.0474 17.8288 30.8083 17.7475 30.5701 17.7475V18.1475ZM30.9451 18.3103C31.0296 18.3799 31.0788 18.4857 31.0788 18.6511H31.4788C31.4788 18.3996 31.3992 18.1662 31.1996 18.0017L30.9451 18.3103Z" fill="white" mask="url(#path-7-outside-3)"/>
<path d="M29.281 23.6558C29.4517 23.4833 29.5619 23.26 29.5854 23.013H29.5902V22.913H29.4902H28.6464H28.5464L29.281 23.6558ZM29.281 23.6558C29.1104 23.828 28.8902 23.9396 28.6464 23.9637M29.281 23.6558L28.6464 23.9637M28.6464 23.9637V23.9687H28.5464M28.6464 23.9637L28.5464 23.9687M28.5464 23.9687V23.8687V23.9687ZM29.6902 22.913V22.813H29.5902H28.5464H28.4464V22.913V23.9687V24.0687H28.5464C28.8586 24.0687 29.1411 23.9392 29.3521 23.7262L29.3521 23.7261C29.5629 23.513 29.6902 23.2274 29.6902 22.913Z" fill="white" stroke="white" stroke-width="0.2"/>
<path d="M28.0147 22.913V22.813H27.9147H26.8706H26.7706V22.913C26.7706 23.1689 26.8549 23.412 26.9972 23.599L26.9966 23.5995L27.0057 23.6087C27.0215 23.6247 27.0349 23.6408 27.0513 23.6607L27.0522 23.6618C27.0678 23.6808 27.0864 23.7033 27.1089 23.7261C27.3197 23.9392 27.6026 24.0687 27.9147 24.0687H28.0147V23.9687V22.913Z" fill="white" stroke="white" stroke-width="0.2"/>
</svg>
