<svg width="41" height="40" viewBox="0 0 41 40" fill="none" xmlns="http://www.w3.org/2000/svg">
<path fill-rule="evenodd" clip-rule="evenodd" d="M21.8299 14.3235C21.2848 14.6812 20.6806 14.9492 19.9881 15.0982C19.2956 15.2473 18.5881 15.3218 17.8365 15.3218H12.4137L13.6221 6.51626H19.8554C21.4468 6.51626 22.5668 6.94813 23.1856 7.81253C23.8045 8.67659 24.0402 9.68967 23.9078 10.8669C23.7898 11.6716 23.5541 12.3567 23.1856 12.9231C22.8172 13.504 22.3604 13.9662 21.8299 14.3235ZM23.333 24.1273C23.2003 25.1852 22.8615 26.0492 22.3311 26.6901C21.8006 27.331 21.1964 27.8374 20.4889 28.2247C19.7817 28.5973 19.0595 28.8504 18.323 28.9846C17.5711 29.104 16.8936 29.1785 16.2894 29.1785H10.4539L11.9276 18.868H17.8072C19.7374 18.868 21.2111 19.3151 22.213 20.194C23.2003 21.058 23.5834 22.3691 23.333 24.1273ZM26.1918 14.5915C27.2674 13.5191 27.9156 12.1184 28.137 10.4199C28.299 9.16846 28.225 8.06571 27.9156 7.12714C27.6065 6.18857 27.0907 5.42868 26.3978 4.8178C25.6907 4.22176 24.8214 3.75989 23.7751 3.46187C22.7288 3.16385 21.5792 3 20.3122 3H10.1151L6.00366 32.6647H16.0831C17.5271 32.6647 18.8975 32.486 20.1942 32.1135C21.4909 31.7558 22.6552 31.2195 23.6864 30.5192C23.9962 30.3109 24.2906 30.087 24.5707 29.8487C24.8361 29.6255 25.0865 29.372 25.3222 29.1188C25.3369 29.104 25.3369 29.104 25.3519 29.0891C25.676 28.7314 25.9854 28.3441 26.2508 27.9419C26.5602 27.4648 26.8253 26.9585 27.0317 26.4221C27.1937 26.0199 27.3114 25.5874 27.4148 25.1407C27.4295 25.0958 27.4295 25.0513 27.4445 24.9916C27.4881 24.7978 27.5178 24.6043 27.5475 24.3956C27.6065 23.9634 27.6358 23.5464 27.6212 23.1442C27.2971 23.129 27.002 23.0845 26.7369 23.0248C26.4569 22.9503 26.2211 22.861 26.0294 22.7416C25.558 22.4736 25.3222 22.1011 25.3222 21.6096C25.3222 21.1177 25.558 20.7452 26.0294 20.4471C26.0738 20.4175 26.1328 20.3878 26.1771 20.3726C26.3832 20.2685 26.6189 20.194 26.899 20.1343C26.7516 19.8514 26.5896 19.5831 26.3978 19.3299C26.3685 19.2851 26.3245 19.2406 26.2801 19.1957C26.1474 19.017 25.9854 18.8529 25.838 18.689C25.4696 18.3165 25.0568 18.0036 24.5854 17.7356C23.8635 17.3331 23.0823 17.0947 22.2277 17.0502V16.9609C23.8045 16.469 25.1162 15.6795 26.1918 14.5915ZM27.4591 21.6244C27.4295 21.5199 27.4001 21.4157 27.3704 21.3115H27.2971C27.2971 21.5796 27.3851 21.8179 27.5325 22.0266C27.5178 21.8776 27.4881 21.7434 27.4591 21.6244Z" fill="white"/>
<mask id="path-2-outside-1" maskUnits="userSpaceOnUse" x="23.3201" y="24.8696" width="9" height="9" fill="black">
<rect fill="white" x="23.3201" y="24.8696" width="9" height="9"/>
<path fill-rule="evenodd" clip-rule="evenodd" d="M25.8809 26.3667C25.8033 26.3667 25.7279 26.3944 25.6686 26.4459C25.3572 26.7155 25.1277 26.9984 24.9666 27.3103C24.7328 27.7415 24.6151 28.2689 24.6151 28.8805C24.6151 29.9123 24.934 30.751 25.5907 31.4443C26.2297 32.105 27.0386 32.4264 28.0631 32.4264C28.6095 32.4264 29.0728 32.3311 29.5205 32.1267C29.9656 31.9233 30.3379 31.6256 30.6591 31.2162C30.8824 30.906 31.0695 30.5565 31.2117 30.183C31.3317 29.8322 31.3933 29.4126 31.3933 28.9401C31.3933 28.2564 31.2466 27.6551 30.9567 27.1527C30.7715 26.8029 30.4863 26.5022 30.0568 26.2019C29.9219 26.1248 29.7145 26.1722 29.6138 26.313C29.5101 26.4729 29.573 26.6948 29.6982 26.8078C29.9701 26.9779 30.2042 27.1833 30.3747 27.4029C30.6356 27.7289 30.7745 28.1219 30.7745 28.5376C30.7745 29.1811 30.5071 29.7122 29.9796 30.1167C29.4683 30.5081 28.813 30.6983 27.9747 30.6983C27.0898 30.6983 26.4126 30.5341 25.9047 30.1968C25.3902 29.8395 25.1306 29.3371 25.1306 28.7018C25.1306 28.3131 25.2539 27.9386 25.4964 27.5882C25.6484 27.3729 25.8169 27.2114 26.0788 27.0294C26.1544 26.973 26.2079 26.881 26.2216 26.7798C26.234 26.6908 26.2134 26.6071 26.1642 26.5438L26.1388 26.4986C26.0866 26.4267 26.0106 26.3809 25.9232 26.3694C25.9092 26.3674 25.8949 26.3667 25.8809 26.3667ZM28.0631 32.7244C26.9708 32.7244 26.0677 32.3634 25.3791 31.6517C24.6761 30.9093 24.3201 29.9773 24.3201 28.8805C24.3201 28.2185 24.4502 27.6429 24.7068 27.1698C24.8841 26.8263 25.1365 26.5144 25.4769 26.2194C25.6102 26.104 25.7863 26.0509 25.9617 26.074C26.1358 26.0971 26.2868 26.1907 26.3869 26.3377L26.4058 26.3727C26.4974 26.4976 26.5359 26.6562 26.5137 26.82C26.4893 27.001 26.3927 27.1659 26.2493 27.2723C26.0109 27.4378 25.8685 27.574 25.7371 27.7603C25.5304 28.0583 25.4254 28.3754 25.4254 28.7018C25.4254 29.2329 25.6419 29.6529 26.069 29.9496C26.5251 30.2522 27.1492 30.4003 27.9747 30.4003C28.7461 30.4003 29.3438 30.2298 29.8016 29.879C30.2515 29.5342 30.4797 29.0829 30.4797 28.5376C30.4797 28.1862 30.3669 27.8667 30.1442 27.5885C29.9916 27.3923 29.7807 27.2087 29.5335 27.0557L29.5153 27.0422C29.2554 26.82 29.1905 26.4182 29.3699 26.1459L29.3725 26.1419C29.5603 25.8762 29.9375 25.7901 30.214 25.95C30.6939 26.285 31.0082 26.6189 31.214 27.0073C31.5276 27.5509 31.6881 28.203 31.6881 28.9401C31.6881 29.4455 31.6209 29.8982 31.4885 30.2852C31.3353 30.6877 31.1357 31.0603 30.8938 31.3965C30.5436 31.8429 30.1237 32.1782 29.6418 32.3984C29.1547 32.6209 28.6529 32.7244 28.0631 32.7244Z"/>
</mask>
<path fill-rule="evenodd" clip-rule="evenodd" d="M25.8809 26.3667C25.8033 26.3667 25.7279 26.3944 25.6686 26.4459C25.3572 26.7155 25.1277 26.9984 24.9666 27.3103C24.7328 27.7415 24.6151 28.2689 24.6151 28.8805C24.6151 29.9123 24.934 30.751 25.5907 31.4443C26.2297 32.105 27.0386 32.4264 28.0631 32.4264C28.6095 32.4264 29.0728 32.3311 29.5205 32.1267C29.9656 31.9233 30.3379 31.6256 30.6591 31.2162C30.8824 30.906 31.0695 30.5565 31.2117 30.183C31.3317 29.8322 31.3933 29.4126 31.3933 28.9401C31.3933 28.2564 31.2466 27.6551 30.9567 27.1527C30.7715 26.8029 30.4863 26.5022 30.0568 26.2019C29.9219 26.1248 29.7145 26.1722 29.6138 26.313C29.5101 26.4729 29.573 26.6948 29.6982 26.8078C29.9701 26.9779 30.2042 27.1833 30.3747 27.4029C30.6356 27.7289 30.7745 28.1219 30.7745 28.5376C30.7745 29.1811 30.5071 29.7122 29.9796 30.1167C29.4683 30.5081 28.813 30.6983 27.9747 30.6983C27.0898 30.6983 26.4126 30.5341 25.9047 30.1968C25.3902 29.8395 25.1306 29.3371 25.1306 28.7018C25.1306 28.3131 25.2539 27.9386 25.4964 27.5882C25.6484 27.3729 25.8169 27.2114 26.0788 27.0294C26.1544 26.973 26.2079 26.881 26.2216 26.7798C26.234 26.6908 26.2134 26.6071 26.1642 26.5438L26.1388 26.4986C26.0866 26.4267 26.0106 26.3809 25.9232 26.3694C25.9092 26.3674 25.8949 26.3667 25.8809 26.3667ZM28.0631 32.7244C26.9708 32.7244 26.0677 32.3634 25.3791 31.6517C24.6761 30.9093 24.3201 29.9773 24.3201 28.8805C24.3201 28.2185 24.4502 27.6429 24.7068 27.1698C24.8841 26.8263 25.1365 26.5144 25.4769 26.2194C25.6102 26.104 25.7863 26.0509 25.9617 26.074C26.1358 26.0971 26.2868 26.1907 26.3869 26.3377L26.4058 26.3727C26.4974 26.4976 26.5359 26.6562 26.5137 26.82C26.4893 27.001 26.3927 27.1659 26.2493 27.2723C26.0109 27.4378 25.8685 27.574 25.7371 27.7603C25.5304 28.0583 25.4254 28.3754 25.4254 28.7018C25.4254 29.2329 25.6419 29.6529 26.069 29.9496C26.5251 30.2522 27.1492 30.4003 27.9747 30.4003C28.7461 30.4003 29.3438 30.2298 29.8016 29.879C30.2515 29.5342 30.4797 29.0829 30.4797 28.5376C30.4797 28.1862 30.3669 27.8667 30.1442 27.5885C29.9916 27.3923 29.7807 27.2087 29.5335 27.0557L29.5153 27.0422C29.2554 26.82 29.1905 26.4182 29.3699 26.1459L29.3725 26.1419C29.5603 25.8762 29.9375 25.7901 30.214 25.95C30.6939 26.285 31.0082 26.6189 31.214 27.0073C31.5276 27.5509 31.6881 28.203 31.6881 28.9401C31.6881 29.4455 31.6209 29.8982 31.4885 30.2852C31.3353 30.6877 31.1357 31.0603 30.8938 31.3965C30.5436 31.8429 30.1237 32.1782 29.6418 32.3984C29.1547 32.6209 28.6529 32.7244 28.0631 32.7244Z" fill="white"/>
<path d="M25.6686 26.4459L25.7995 26.597L25.7996 26.597L25.6686 26.4459ZM24.9666 27.3103L25.1425 27.4056L25.1443 27.402L24.9666 27.3103ZM25.5907 31.4443L25.4455 31.5819L25.4469 31.5834L25.5907 31.4443ZM29.5205 32.1267L29.6036 32.3087L29.6036 32.3086L29.5205 32.1267ZM30.6591 31.2162L30.8166 31.3397L30.8214 31.333L30.6591 31.2162ZM31.2117 30.183L31.3987 30.2542L31.4009 30.2477L31.2117 30.183ZM30.9567 27.1527L30.7799 27.2463L30.7835 27.2526L30.9567 27.1527ZM30.0568 26.2019L30.1715 26.038L30.164 26.0328L30.1561 26.0283L30.0568 26.2019ZM29.6138 26.313L29.4509 26.1965L29.4459 26.2042L29.6138 26.313ZM29.6982 26.8078L29.5641 26.9563L29.5772 26.9681L29.5921 26.9774L29.6982 26.8078ZM30.3747 27.4029L30.2168 27.5256L30.2186 27.5278L30.3747 27.4029ZM29.9796 30.1167L30.1011 30.2756L30.1013 30.2754L29.9796 30.1167ZM25.9047 30.1968L25.7905 30.3611L25.794 30.3635L25.9047 30.1968ZM25.4964 27.5882L25.333 27.4728L25.332 27.4743L25.4964 27.5882ZM26.0788 27.0294L26.193 27.1937L26.1983 27.1897L26.0788 27.0294ZM26.2216 26.7798L26.0235 26.7522L26.0234 26.753L26.2216 26.7798ZM26.1642 26.5438L25.9899 26.6419L25.9972 26.6548L26.0063 26.6666L26.1642 26.5438ZM26.1388 26.4986L26.313 26.4005L26.3074 26.3904L26.3006 26.3811L26.1388 26.4986ZM25.9232 26.3694L25.8953 26.5674L25.8971 26.5677L25.9232 26.3694ZM25.3791 31.6517L25.2338 31.7892L25.2353 31.7907L25.3791 31.6517ZM24.7068 27.1698L24.8826 27.2652L24.8845 27.2616L24.7068 27.1698ZM25.4769 26.2194L25.346 26.0681L25.3459 26.0682L25.4769 26.2194ZM25.9617 26.074L25.988 25.8757L25.9878 25.8757L25.9617 26.074ZM26.3869 26.3377L26.5628 26.2425L26.5579 26.2336L26.5522 26.2252L26.3869 26.3377ZM26.4058 26.3727L26.2299 26.4679L26.2364 26.4799L26.2445 26.4909L26.4058 26.3727ZM26.5137 26.82L26.3155 26.7932L26.3155 26.7933L26.5137 26.82ZM26.2493 27.2723L26.3634 27.4367L26.3685 27.4329L26.2493 27.2723ZM25.7371 27.7603L25.5736 27.645L25.5727 27.6463L25.7371 27.7603ZM26.069 29.9496L25.9548 30.1139L25.9584 30.1162L26.069 29.9496ZM29.8016 29.879L29.9232 30.0378L29.9232 30.0378L29.8016 29.879ZM30.1442 27.5885L29.9864 27.7113L29.9881 27.7135L30.1442 27.5885ZM29.5335 27.0557L29.4145 27.2165L29.4212 27.2214L29.4283 27.2258L29.5335 27.0557ZM29.5153 27.0422L29.385 27.1946L29.3963 27.203L29.5153 27.0422ZM29.3699 26.1459L29.2029 26.0358L29.2028 26.0359L29.3699 26.1459ZM29.3725 26.1419L29.2091 26.0264L29.2055 26.0318L29.3725 26.1419ZM30.214 25.95L30.3285 25.786L30.3215 25.7812L30.3141 25.7769L30.214 25.95ZM31.214 27.0073L31.0371 27.101L31.0408 27.1072L31.214 27.0073ZM31.4885 30.2852L31.6755 30.3564L31.6778 30.3499L31.4885 30.2852ZM30.8938 31.3965L31.0513 31.5201L31.0562 31.5133L30.8938 31.3965ZM29.6418 32.3984L29.7249 32.5803L29.7249 32.5803L29.6418 32.3984ZM25.8809 26.1667C25.7555 26.1667 25.6336 26.2115 25.5376 26.2947L25.7996 26.597C25.8223 26.5773 25.851 26.5667 25.8809 26.5667V26.1667ZM25.5377 26.2947C25.2103 26.5782 24.9635 26.8805 24.7889 27.2185L25.1443 27.402C25.2919 27.1163 25.5042 26.8528 25.7995 26.597L25.5377 26.2947ZM24.7908 27.2149C24.5376 27.6819 24.4151 28.2439 24.4151 28.8805H24.8151C24.8151 28.294 24.928 27.801 25.1424 27.4056L24.7908 27.2149ZM24.4151 28.8805C24.4151 29.9589 24.7506 30.8482 25.4455 31.5818L25.7359 31.3068C25.1174 30.6538 24.8151 29.8657 24.8151 28.8805H24.4151ZM25.4469 31.5834C26.1281 32.2876 26.9912 32.6264 28.0631 32.6264V32.2264C27.086 32.2264 26.3313 31.9223 25.7344 31.3053L25.4469 31.5834ZM28.0631 32.6264C28.635 32.6264 29.1271 32.5262 29.6036 32.3087L29.4374 31.9448C29.0186 32.136 28.584 32.2264 28.0631 32.2264V32.6264ZM29.6036 32.3086C30.0796 32.0911 30.4768 31.7726 30.8164 31.3396L30.5017 31.0928C30.199 31.4787 29.8516 31.7555 29.4374 31.9448L29.6036 32.3086ZM30.8214 31.333C31.0553 31.0082 31.2505 30.6433 31.3986 30.2541L31.0248 30.1119C30.8886 30.4698 30.7095 30.8038 30.4967 31.0993L30.8214 31.333ZM31.4009 30.2477C31.5297 29.8714 31.5933 29.429 31.5933 28.9401H31.1933C31.1933 29.3961 31.1337 29.793 31.0225 30.1183L31.4009 30.2477ZM31.5933 28.9401C31.5933 28.2277 31.4403 27.5906 31.13 27.0527L30.7835 27.2526C31.0529 27.7196 31.1933 28.2851 31.1933 28.9401H31.5933ZM31.1335 27.0591C30.9293 26.6735 30.6186 26.3507 30.1715 26.038L29.9422 26.3658C30.3539 26.6538 30.6137 26.9323 30.78 27.2463L31.1335 27.0591ZM30.1561 26.0283C30.0357 25.9595 29.8958 25.952 29.7751 25.9814C29.6534 26.0111 29.5328 26.0825 29.4511 26.1966L29.7764 26.4294C29.7955 26.4028 29.8289 26.38 29.8698 26.37C29.9118 26.3598 29.943 26.3672 29.9576 26.3755L30.1561 26.0283ZM29.4459 26.2042C29.3598 26.337 29.3476 26.4885 29.3742 26.6183C29.4006 26.7467 29.4678 26.8693 29.5641 26.9563L29.8323 26.6594C29.8034 26.6333 29.7765 26.5884 29.766 26.5377C29.7559 26.4883 29.764 26.4489 29.7816 26.4218L29.4459 26.2042ZM29.5921 26.9774C29.8474 27.1371 30.0629 27.3274 30.2168 27.5256L30.5327 27.2802C30.3456 27.0393 30.0928 26.8188 29.8043 26.6383L29.5921 26.9774ZM30.2186 27.5278C30.4513 27.8188 30.5745 28.1678 30.5745 28.5376H30.9745C30.9745 28.076 30.8198 27.6391 30.5309 27.2779L30.2186 27.5278ZM30.5745 28.5376C30.5745 29.1166 30.338 29.5899 29.8579 29.958L30.1013 30.2754C30.6763 29.8346 30.9745 29.2457 30.9745 28.5376H30.5745ZM29.858 29.9579C29.3909 30.3154 28.7823 30.4983 27.9747 30.4983V30.8983C28.8436 30.8983 29.5458 30.7007 30.1011 30.2756L29.858 29.9579ZM27.9747 30.4983C27.1124 30.4983 26.4788 30.338 26.0153 30.0302L25.794 30.3635C26.3465 30.7302 27.0673 30.8983 27.9747 30.8983V30.4983ZM26.0187 30.0326C25.5591 29.7133 25.3306 29.2729 25.3306 28.7018H24.9306C24.9306 29.4013 25.2212 29.9656 25.7906 30.3611L26.0187 30.0326ZM25.3306 28.7018C25.3306 28.3578 25.4391 28.0225 25.6609 27.702L25.332 27.4743C25.0687 27.8547 24.9306 28.2684 24.9306 28.7018H25.3306ZM25.6598 27.7035C25.7958 27.5109 25.9462 27.3651 26.1929 27.1936L25.9646 26.8651C25.6877 27.0576 25.501 27.2349 25.333 27.4728L25.6598 27.7035ZM26.1983 27.1897C26.3195 27.0994 26.3993 26.958 26.4198 26.8066L26.0234 26.753C26.0165 26.8041 25.9893 26.8466 25.9592 26.869L26.1983 27.1897ZM26.4197 26.8074C26.4386 26.6715 26.4083 26.5319 26.3221 26.421L26.0063 26.6666C26.0185 26.6823 26.0293 26.7101 26.0235 26.7522L26.4197 26.8074ZM26.3385 26.4456L26.313 26.4005L25.9645 26.5967L25.9899 26.6419L26.3385 26.4456ZM26.3006 26.3811C26.2169 26.2657 26.0923 26.19 25.9494 26.1711L25.8971 26.5677C25.929 26.5719 25.9563 26.5877 25.9769 26.6161L26.3006 26.3811ZM25.9512 26.1713C25.925 26.1676 25.9007 26.1667 25.8809 26.1667V26.5667C25.889 26.5667 25.8934 26.5672 25.8953 26.5674L25.9512 26.1713ZM28.0631 32.5244C27.0189 32.5244 26.1697 32.1812 25.5228 31.5126L25.2353 31.7907C25.9657 32.5457 26.9228 32.9244 28.0631 32.9244V32.5244ZM25.5243 31.5142C24.8592 30.8118 24.5201 29.9302 24.5201 28.8805H24.1201C24.1201 30.0243 24.493 31.0067 25.2338 31.7892L25.5243 31.5142ZM24.5201 28.8805C24.5201 28.2442 24.6451 27.703 24.8826 27.2652L24.531 27.0745C24.2552 27.5828 24.1201 28.1928 24.1201 28.8805H24.5201ZM24.8845 27.2616C25.0485 26.9439 25.2837 26.6515 25.6079 26.3705L25.3459 26.0682C24.9893 26.3773 24.7198 26.7087 24.529 27.0781L24.8845 27.2616ZM25.6077 26.3706C25.698 26.2925 25.817 26.2567 25.9356 26.2723L25.9878 25.8757C25.7556 25.8452 25.5225 25.9155 25.346 26.0681L25.6077 26.3706ZM25.9354 26.2723C26.0523 26.2877 26.153 26.3496 26.2215 26.4503L26.5522 26.2252C26.4205 26.0318 26.2193 25.9064 25.988 25.8757L25.9354 26.2723ZM26.211 26.4329L26.2299 26.4679L26.5817 26.2775L26.5628 26.2425L26.211 26.4329ZM26.2445 26.4909C26.3035 26.5714 26.3312 26.6772 26.3155 26.7932L26.7119 26.8469C26.7405 26.6352 26.6913 26.4239 26.5671 26.2544L26.2445 26.4909ZM26.3155 26.7933C26.2981 26.922 26.2293 27.0381 26.1301 27.1117L26.3685 27.4329C26.5562 27.2936 26.6804 27.0801 26.7119 26.8468L26.3155 26.7933ZM26.1352 27.1081C25.8824 27.2836 25.7215 27.4354 25.5736 27.645L25.9005 27.8755C26.0154 27.7126 26.1394 27.5921 26.3634 27.4366L26.1352 27.1081ZM25.5727 27.6463C25.3455 27.9739 25.2254 28.3302 25.2254 28.7018H25.6254C25.6254 28.4206 25.7152 28.1427 25.9014 27.8742L25.5727 27.6463ZM25.2254 28.7018C25.2254 29.2967 25.4725 29.7788 25.9549 30.1138L26.1831 29.7853C25.8112 29.527 25.6254 29.1691 25.6254 28.7018H25.2254ZM25.9584 30.1162C26.4599 30.449 27.1284 30.6003 27.9747 30.6003V30.2003C27.17 30.2003 26.5903 30.0554 26.1796 29.7829L25.9584 30.1162ZM27.9747 30.6003C28.7753 30.6003 29.4204 30.4231 29.9232 30.0378L29.6799 29.7203C29.2672 30.0365 28.717 30.2003 27.9747 30.2003V30.6003ZM29.9232 30.0378C30.4202 29.6569 30.6797 29.148 30.6797 28.5376H30.2797C30.2797 29.0178 30.0828 29.4115 29.6799 29.7203L29.9232 30.0378ZM30.6797 28.5376C30.6797 28.1401 30.5511 27.7767 30.3004 27.4635L29.9881 27.7135C30.1828 27.9567 30.2797 28.2322 30.2797 28.5376H30.6797ZM30.3021 27.4657C30.1325 27.2477 29.9026 27.0489 29.6388 26.8857L29.4283 27.2258C29.6588 27.3685 29.8507 27.5369 29.9864 27.7113L30.3021 27.4657ZM29.6525 26.895L29.6343 26.8815L29.3963 27.203L29.4145 27.2165L29.6525 26.895ZM29.6453 26.8902C29.4565 26.7288 29.4169 26.4381 29.5369 26.2559L29.2028 26.0359C28.9642 26.3983 29.0543 26.9112 29.3853 27.1942L29.6453 26.8902ZM29.5368 26.2559L29.5394 26.252L29.2055 26.0318L29.2029 26.0358L29.5368 26.2559ZM29.5358 26.2573C29.6657 26.0735 29.9296 26.0166 30.1139 26.1232L30.3141 25.7769C29.9454 25.5637 29.4548 25.6788 29.2092 26.0265L29.5358 26.2573ZM30.0995 26.114C30.5613 26.4363 30.8503 26.748 31.0373 27.1009L31.3907 26.9137C31.1662 26.4899 30.8266 26.1337 30.3285 25.786L30.0995 26.114ZM31.0408 27.1072C31.3341 27.6157 31.4881 28.2321 31.4881 28.9401H31.8881C31.8881 28.1739 31.7212 27.4862 31.3872 26.9073L31.0408 27.1072ZM31.4881 28.9401C31.4881 29.4285 31.4231 29.8585 31.2993 30.2205L31.6778 30.3499C31.8187 29.9378 31.8881 29.4626 31.8881 28.9401H31.4881ZM31.3016 30.214C31.1543 30.6009 30.9629 30.958 30.7315 31.2797L31.0562 31.5133C31.3086 31.1625 31.5162 30.7745 31.6754 30.3564L31.3016 30.214ZM30.7364 31.2731C30.4047 31.6959 30.0097 32.0104 29.5587 32.2165L29.7249 32.5803C30.2377 32.346 30.6826 31.9898 31.0512 31.52L30.7364 31.2731ZM29.5587 32.2165C29.1002 32.4259 28.6272 32.5244 28.0631 32.5244V32.9244C28.6786 32.9244 29.2091 32.8159 29.7249 32.5803L29.5587 32.2165Z" fill="white" mask="url(#path-2-outside-1)"/>
<mask id="path-4-outside-2" maskUnits="userSpaceOnUse" x="23.4675" y="25.0186" width="9" height="8" fill="black">
<rect fill="white" x="23.4675" y="25.0186" width="9" height="8"/>
<path fill-rule="evenodd" clip-rule="evenodd" d="M29.4926 26.2283C29.6396 26.0196 29.9343 25.9602 30.1407 26.0792C30.5238 26.3476 30.8626 26.6604 31.084 27.0775C31.3934 27.6139 31.5404 28.2399 31.5404 28.9401C31.5404 29.4017 31.4818 29.8487 31.3491 30.2364C31.2017 30.6237 31.01 30.9811 30.7746 31.3091C30.4355 31.741 30.0377 32.0539 29.5809 32.2625C29.1238 32.4712 28.6377 32.5754 28.0628 32.5754C27.0019 32.5754 26.1473 32.2329 25.4845 31.5475C24.8213 30.8473 24.4675 29.968 24.4675 28.8804C24.4675 28.2544 24.5856 27.7032 24.836 27.2413C25.0127 26.8988 25.2631 26.6008 25.5728 26.3324C25.7789 26.1537 26.103 26.1834 26.2653 26.4218L26.28 26.4518C26.4424 26.6604 26.3831 26.9881 26.1623 27.152C25.9263 27.3158 25.7642 27.4648 25.6168 27.6735C25.4105 27.9715 25.2781 28.3141 25.2781 28.7014C25.2781 29.2826 25.5138 29.7445 25.9853 30.0722C26.4567 30.3851 27.1052 30.5489 27.9748 30.5489C28.7704 30.5489 29.4042 30.3702 29.8903 29.998C30.3765 29.6255 30.6269 29.1336 30.6269 28.5376C30.6269 28.1651 30.5092 27.8077 30.2588 27.4945C30.0967 27.2862 29.8757 27.0923 29.6103 26.9285C29.4185 26.7646 29.3452 26.4518 29.4926 26.2283Z"/>
</mask>
<path fill-rule="evenodd" clip-rule="evenodd" d="M29.4926 26.2283C29.6396 26.0196 29.9343 25.9602 30.1407 26.0792C30.5238 26.3476 30.8626 26.6604 31.084 27.0775C31.3934 27.6139 31.5404 28.2399 31.5404 28.9401C31.5404 29.4017 31.4818 29.8487 31.3491 30.2364C31.2017 30.6237 31.01 30.9811 30.7746 31.3091C30.4355 31.741 30.0377 32.0539 29.5809 32.2625C29.1238 32.4712 28.6377 32.5754 28.0628 32.5754C27.0019 32.5754 26.1473 32.2329 25.4845 31.5475C24.8213 30.8473 24.4675 29.968 24.4675 28.8804C24.4675 28.2544 24.5856 27.7032 24.836 27.2413C25.0127 26.8988 25.2631 26.6008 25.5728 26.3324C25.7789 26.1537 26.103 26.1834 26.2653 26.4218L26.28 26.4518C26.4424 26.6604 26.3831 26.9881 26.1623 27.152C25.9263 27.3158 25.7642 27.4648 25.6168 27.6735C25.4105 27.9715 25.2781 28.3141 25.2781 28.7014C25.2781 29.2826 25.5138 29.7445 25.9853 30.0722C26.4567 30.3851 27.1052 30.5489 27.9748 30.5489C28.7704 30.5489 29.4042 30.3702 29.8903 29.998C30.3765 29.6255 30.6269 29.1336 30.6269 28.5376C30.6269 28.1651 30.5092 27.8077 30.2588 27.4945C30.0967 27.2862 29.8757 27.0923 29.6103 26.9285C29.4185 26.7646 29.3452 26.4518 29.4926 26.2283Z" fill="white"/>
<path d="M30.1407 26.0792L30.2555 25.9154L30.2483 25.9104L30.2406 25.906L30.1407 26.0792ZM31.084 27.0775L30.9072 27.1713L30.9107 27.1774L31.084 27.0775ZM31.3491 30.2364L31.5361 30.3075L31.5383 30.3012L31.3491 30.2364ZM30.7746 31.3091L30.932 31.4328L30.9371 31.4257L30.7746 31.3091ZM29.5809 32.2625L29.664 32.4445L29.664 32.4445L29.5809 32.2625ZM25.4845 31.5475L25.3392 31.685L25.3407 31.6865L25.4845 31.5475ZM24.836 27.2413L25.0118 27.3367L25.0137 27.333L24.836 27.2413ZM25.5728 26.3324L25.7038 26.4836L25.7039 26.4835L25.5728 26.3324ZM26.2653 26.4218L26.445 26.3339L26.4387 26.321L26.4306 26.3092L26.2653 26.4218ZM26.28 26.4518L26.1004 26.5396L26.1095 26.5582L26.1222 26.5746L26.28 26.4518ZM26.1623 27.152L26.2764 27.3164L26.2815 27.3126L26.1623 27.152ZM25.6168 27.6735L25.4535 27.5581L25.4524 27.5597L25.6168 27.6735ZM25.9853 30.0722L25.8711 30.2365L25.8747 30.2389L25.9853 30.0722ZM29.8903 29.998L30.0119 30.1568L30.012 30.1568L29.8903 29.998ZM30.2588 27.4945L30.1009 27.6173L30.1026 27.6194L30.2588 27.4945ZM29.6103 26.9285L29.4803 27.0805L29.4921 27.0905L29.5052 27.0987L29.6103 26.9285ZM29.656 26.3435C29.7436 26.2192 29.9242 26.1852 30.0408 26.2525L30.2406 25.906C29.9445 25.7352 29.5356 25.82 29.3291 26.113L29.656 26.3435ZM30.026 26.243C30.3957 26.502 30.7065 26.793 30.9073 27.1713L31.2606 26.9837C31.0186 26.5279 30.652 26.1932 30.2555 25.9154L30.026 26.243ZM30.9107 27.1774C31.1995 27.678 31.3404 28.2681 31.3404 28.9401H31.7404C31.7404 28.2117 31.5873 27.5497 31.2572 26.9775L30.9107 27.1774ZM31.3404 28.9401C31.3404 29.3861 31.2836 29.8101 31.1598 30.1716L31.5383 30.3012C31.6799 29.8873 31.7404 29.4172 31.7404 28.9401H31.3404ZM31.1621 30.1653C31.0208 30.5368 30.8372 30.8788 30.6121 31.1925L30.9371 31.4257C31.1827 31.0834 31.3826 30.7107 31.536 30.3075L31.1621 30.1653ZM30.6173 31.1856C30.297 31.5935 29.9243 31.8858 29.4978 32.0806L29.664 32.4445C30.1511 32.2219 30.574 31.8885 30.9319 31.4326L30.6173 31.1856ZM29.4979 32.0806C29.069 32.2764 28.6115 32.3754 28.0628 32.3754V32.7754C28.6638 32.7754 29.1786 32.6661 29.664 32.4445L29.4979 32.0806ZM28.0628 32.3754C27.0498 32.3754 26.2492 32.0506 25.6282 31.4084L25.3407 31.6865C26.0454 32.4152 26.954 32.7754 28.0628 32.7754V32.3754ZM25.6297 31.41C25.0037 30.749 24.6675 29.9199 24.6675 28.8804H24.2675C24.2675 30.0162 24.6389 30.9455 25.3393 31.685L25.6297 31.41ZM24.6675 28.8804C24.6675 28.279 24.7809 27.7625 25.0118 27.3366L24.6601 27.146C24.3902 27.6439 24.2675 28.2298 24.2675 28.8804H24.6675ZM25.0137 27.333C25.1765 27.0175 25.4092 26.7388 25.7038 26.4836L25.4419 26.1813C25.117 26.4627 24.8489 26.7801 24.6582 27.1496L25.0137 27.333ZM25.7039 26.4835C25.8234 26.3799 26.0079 26.3991 26.1001 26.5344L26.4306 26.3092C26.1981 25.9677 25.7344 25.9276 25.4418 26.1813L25.7039 26.4835ZM26.0857 26.5096L26.1004 26.5396L26.4597 26.3639L26.445 26.3339L26.0857 26.5096ZM26.1222 26.5746C26.2076 26.6843 26.1846 26.8863 26.0431 26.9914L26.2815 27.3126C26.5815 27.0899 26.6772 26.6366 26.4379 26.3289L26.1222 26.5746ZM26.0483 26.9877C25.7984 27.1611 25.6176 27.3257 25.4535 27.5582L25.7802 27.7889C25.9108 27.604 26.0541 27.4706 26.2764 27.3163L26.0483 26.9877ZM25.4524 27.5597C25.2276 27.8843 25.0781 28.2658 25.0781 28.7014H25.4781C25.4781 28.3623 25.5933 28.0587 25.7813 27.7874L25.4524 27.5597ZM25.0781 28.7014C25.0781 29.3462 25.3443 29.8702 25.8711 30.2364L26.0994 29.908C25.6833 29.6188 25.4781 29.2191 25.4781 28.7014H25.0781ZM25.8747 30.2389C26.3905 30.5811 27.0825 30.7489 27.9748 30.7489V30.3489C27.128 30.3489 26.523 30.189 26.0959 29.9056L25.8747 30.2389ZM27.9748 30.7489C28.7998 30.7489 29.4809 30.5634 30.0119 30.1568L29.7687 29.8392C29.3275 30.1771 28.7409 30.3489 27.9748 30.3489V30.7489ZM30.012 30.1568C30.5452 29.7482 30.8269 29.1987 30.8269 28.5376H30.4269C30.4269 29.0686 30.2077 29.5029 29.7687 29.8393L30.012 30.1568ZM30.8269 28.5376C30.8269 28.1206 30.6943 27.719 30.415 27.3696L30.1026 27.6194C30.324 27.8964 30.4269 28.2095 30.4269 28.5376H30.8269ZM30.4166 27.3717C30.2378 27.1418 29.9978 26.9327 29.7153 26.7583L29.5052 27.0987C29.7535 27.2519 29.9556 27.4305 30.1009 27.6173L30.4166 27.3717ZM29.7402 26.7764C29.6124 26.6672 29.5765 26.4643 29.6595 26.3383L29.3256 26.1182C29.1139 26.4392 29.2247 26.862 29.4803 27.0805L29.7402 26.7764Z" fill="white" mask="url(#path-4-outside-2)"/>
<mask id="path-6-outside-3" maskUnits="userSpaceOnUse" x="23.3789" y="16.8252" width="9" height="9" fill="black">
<rect fill="white" x="23.3789" y="16.8252" width="9" height="9"/>
<path fill-rule="evenodd" clip-rule="evenodd" d="M26.9462 20.3096C27.2406 20.242 27.5915 20.209 28.0186 20.209C28.8106 20.209 29.4503 20.3478 29.9181 20.6205C30.3515 20.8806 30.5529 21.2089 30.5529 21.6543C30.5529 22.0479 30.3394 22.3756 29.9181 22.6288C29.4636 22.9015 28.8246 23.0399 28.0186 23.0399C27.8872 23.0399 27.7626 23.0399 27.6423 23.0251C27.3561 23.0119 27.0669 22.973 26.7891 22.9107C26.5064 22.8355 26.2883 22.7488 26.1164 22.642C25.691 22.4 25.4842 22.072 25.4842 21.6395C25.4842 21.2079 25.687 20.8786 26.1259 20.601C26.1592 20.5789 26.2061 20.5549 26.2381 20.5443L26.2576 20.5361C26.4431 20.4421 26.6613 20.3703 26.9462 20.3096ZM27.4232 25.3328C27.6312 25.3631 27.8461 25.3941 28.0779 25.3941C28.6478 25.3941 29.134 25.3005 29.6136 25.0971C30.0876 24.8732 30.4994 24.5709 30.8392 24.1977C31.1062 23.8997 31.3269 23.5196 31.5164 23.033C31.6791 22.5992 31.7612 22.1251 31.7612 21.6154C31.7361 21.1967 31.6836 20.6557 31.5011 20.185C31.324 19.7129 31.1026 19.3321 30.8239 19.0206C30.4606 18.6217 30.0583 18.3319 29.5934 18.1348C29.0955 17.9234 28.609 17.8252 28.0629 17.8252C27.4711 17.8252 26.9791 17.9241 26.5119 18.1374C26.2018 18.2851 25.9778 18.4249 25.79 18.5881C25.6198 18.7255 25.4699 18.8666 25.3505 19.0011L25.3036 19.0486C25.0444 19.3245 24.8223 19.706 24.6244 20.216C24.4614 20.6498 24.3789 21.1235 24.3789 21.6243C24.3789 22.1524 24.4673 22.6282 24.6391 23.033C24.8194 23.514 25.0418 23.8911 25.3166 24.1839C25.6798 24.5828 26.0825 24.8726 26.5445 25.0684C26.7884 25.1778 27.0567 25.2589 27.4232 25.3328Z"/>
</mask>
<path fill-rule="evenodd" clip-rule="evenodd" d="M26.9462 20.3096C27.2406 20.242 27.5915 20.209 28.0186 20.209C28.8106 20.209 29.4503 20.3478 29.9181 20.6205C30.3515 20.8806 30.5529 21.2089 30.5529 21.6543C30.5529 22.0479 30.3394 22.3756 29.9181 22.6288C29.4636 22.9015 28.8246 23.0399 28.0186 23.0399C27.8872 23.0399 27.7626 23.0399 27.6423 23.0251C27.3561 23.0119 27.0669 22.973 26.7891 22.9107C26.5064 22.8355 26.2883 22.7488 26.1164 22.642C25.691 22.4 25.4842 22.072 25.4842 21.6395C25.4842 21.2079 25.687 20.8786 26.1259 20.601C26.1592 20.5789 26.2061 20.5549 26.2381 20.5443L26.2576 20.5361C26.4431 20.4421 26.6613 20.3703 26.9462 20.3096ZM27.4232 25.3328C27.6312 25.3631 27.8461 25.3941 28.0779 25.3941C28.6478 25.3941 29.134 25.3005 29.6136 25.0971C30.0876 24.8732 30.4994 24.5709 30.8392 24.1977C31.1062 23.8997 31.3269 23.5196 31.5164 23.033C31.6791 22.5992 31.7612 22.1251 31.7612 21.6154C31.7361 21.1967 31.6836 20.6557 31.5011 20.185C31.324 19.7129 31.1026 19.3321 30.8239 19.0206C30.4606 18.6217 30.0583 18.3319 29.5934 18.1348C29.0955 17.9234 28.609 17.8252 28.0629 17.8252C27.4711 17.8252 26.9791 17.9241 26.5119 18.1374C26.2018 18.2851 25.9778 18.4249 25.79 18.5881C25.6198 18.7255 25.4699 18.8666 25.3505 19.0011L25.3036 19.0486C25.0444 19.3245 24.8223 19.706 24.6244 20.216C24.4614 20.6498 24.3789 21.1235 24.3789 21.6243C24.3789 22.1524 24.4673 22.6282 24.6391 23.033C24.8194 23.514 25.0418 23.8911 25.3166 24.1839C25.6798 24.5828 26.0825 24.8726 26.5445 25.0684C26.7884 25.1778 27.0567 25.2589 27.4232 25.3328Z" fill="white"/>
<path d="M26.9462 20.3096L26.9879 20.5052L26.991 20.5045L26.9462 20.3096ZM29.9181 20.6205L30.0211 20.449L30.0188 20.4477L29.9181 20.6205ZM29.9181 22.6288L30.021 22.8003L30.0212 22.8002L29.9181 22.6288ZM27.6423 23.0251L27.6668 22.8266L27.6592 22.8257L27.6515 22.8253L27.6423 23.0251ZM26.7891 22.9107L26.7376 23.1041L26.7453 23.1058L26.7891 22.9107ZM26.1164 22.642L26.2221 22.472L26.2153 22.4682L26.1164 22.642ZM26.1259 20.601L26.2328 20.7701L26.2365 20.7676L26.1259 20.601ZM26.2381 20.5443L26.3008 20.7342L26.3083 20.7317L26.3157 20.7286L26.2381 20.5443ZM26.2576 20.5361L26.3355 20.7208L26.348 20.7145L26.2576 20.5361ZM27.4232 25.3328L27.3836 25.5291L27.3943 25.5307L27.4232 25.3328ZM29.6136 25.0971L29.6917 25.2813L29.699 25.2779L29.6136 25.0971ZM30.8392 24.1977L30.9871 24.3324L30.9881 24.3312L30.8392 24.1977ZM31.5164 23.033L31.7028 23.1056L31.7036 23.1032L31.5164 23.033ZM31.7612 21.6154H31.9616L31.9609 21.6034L31.7612 21.6154ZM31.5011 20.185L31.3138 20.2552L31.3146 20.2573L31.5011 20.185ZM30.8239 19.0206L30.9729 18.8872L30.9717 18.8859L30.8239 19.0206ZM29.5934 18.1348L29.5152 18.3189L29.5153 18.3189L29.5934 18.1348ZM26.5119 18.1374L26.4288 17.9554L26.4259 17.9568L26.5119 18.1374ZM25.79 18.5881L25.9158 18.7437L25.9212 18.739L25.79 18.5881ZM25.3505 19.0011L25.4929 19.142L25.5001 19.1339L25.3505 19.0011ZM25.3036 19.0486L25.1613 18.9079L25.1578 18.9117L25.3036 19.0486ZM24.6244 20.216L24.438 20.1436L24.4372 20.1456L24.6244 20.216ZM24.6391 23.033L24.8265 22.9627L24.8232 22.9549L24.6391 23.033ZM25.3166 24.1839L25.4645 24.0492L25.4624 24.047L25.3166 24.1839ZM26.5445 25.0684L26.6264 24.8859L26.6226 24.8842L26.5445 25.0684ZM28.0186 20.009C27.582 20.009 27.2152 20.0427 26.9015 20.1147L26.991 20.5045C27.2661 20.4414 27.6009 20.409 28.0186 20.409V20.009ZM30.0188 20.4477C29.5095 20.1509 28.8307 20.009 28.0186 20.009V20.409C28.7904 20.409 29.391 20.5448 29.8174 20.7933L30.0188 20.4477ZM30.7529 21.6543C30.7529 21.3998 30.6949 21.1691 30.5685 20.9633C30.443 20.7589 30.2576 20.591 30.0211 20.449L29.8152 20.7919C30.012 20.9101 30.144 21.0364 30.2276 21.1726C30.3103 21.3073 30.3529 21.4634 30.3529 21.6543H30.7529ZM30.0212 22.8002C30.4852 22.5213 30.7529 22.1363 30.7529 21.6543H30.3529C30.3529 21.9596 30.1935 22.23 29.8151 22.4574L30.0212 22.8002ZM28.0186 23.2399C28.8434 23.2399 29.5233 23.0989 30.021 22.8003L29.8153 22.4573C29.4039 22.704 28.8057 22.8399 28.0186 22.8399V23.2399ZM27.6179 23.2236C27.7525 23.2402 27.8897 23.2399 28.0186 23.2399V22.8399C27.8847 22.8399 27.7728 22.8397 27.6668 22.8266L27.6179 23.2236ZM26.7453 23.1058C27.0344 23.1707 27.3352 23.2112 27.6331 23.2249L27.6515 22.8253C27.3769 22.8126 27.0993 22.7753 26.8328 22.7155L26.7453 23.1058ZM26.0109 22.8119C26.2054 22.9328 26.444 23.0259 26.7377 23.104L26.8405 22.7174C26.5688 22.6452 26.3712 22.5649 26.222 22.4722L26.0109 22.8119ZM25.2842 21.6395C25.2842 21.8893 25.3445 22.1172 25.4716 22.3189C25.5979 22.5192 25.7833 22.6826 26.0176 22.8159L26.2153 22.4682C26.0241 22.3594 25.8934 22.2378 25.81 22.1055C25.7274 21.9745 25.6842 21.8222 25.6842 21.6395H25.2842ZM26.019 20.432C25.7816 20.5821 25.596 20.7538 25.4703 20.9575C25.3434 21.163 25.2842 21.3903 25.2842 21.6395H25.6842C25.6842 21.4571 25.7265 21.304 25.8107 21.1676C25.8961 21.0293 26.0313 20.8975 26.2328 20.77L26.019 20.432ZM26.1754 20.3544C26.1223 20.3719 26.0593 20.4052 26.0152 20.4344L26.2365 20.7676C26.259 20.7527 26.2899 20.7378 26.3008 20.7342L26.1754 20.3544ZM26.18 20.3518L26.1604 20.36L26.3157 20.7286L26.3353 20.7204L26.18 20.3518ZM26.9046 20.114C26.6088 20.1769 26.3729 20.2535 26.1673 20.3577L26.348 20.7145C26.5134 20.6307 26.7137 20.5636 26.9879 20.5052L26.9046 20.114ZM28.0779 25.1941C27.8626 25.1941 27.6614 25.1654 27.4521 25.1349L27.3943 25.5307C27.6011 25.5608 27.8296 25.5941 28.0779 25.5941V25.1941ZM29.5355 24.9129C29.0829 25.1049 28.6237 25.1941 28.0779 25.1941V25.5941C28.672 25.5941 29.185 25.4961 29.6917 25.2812L29.5355 24.9129ZM30.6913 24.0631C30.3698 24.4162 29.9795 24.7031 29.5282 24.9162L29.699 25.2779C30.1958 25.0433 30.6291 24.7256 30.9871 24.3324L30.6913 24.0631ZM31.33 22.9604C31.1467 23.4312 30.9371 23.7887 30.6902 24.0643L30.9881 24.3312C31.2753 24.0107 31.5072 23.608 31.7028 23.1056L31.33 22.9604ZM31.5612 21.6154C31.5612 22.1034 31.4826 22.5534 31.3291 22.9628L31.7036 23.1032C31.8755 22.6449 31.9612 22.1468 31.9612 21.6154H31.5612ZM31.3146 20.2573C31.4851 20.6969 31.5366 21.211 31.5616 21.6274L31.9609 21.6034C31.9356 21.1825 31.8822 20.6146 31.6875 20.1127L31.3146 20.2573ZM30.6748 19.1539C30.934 19.4436 31.1437 19.8017 31.3138 20.2552L31.6883 20.1147C31.5043 19.6241 31.2713 19.2206 30.9729 18.8872L30.6748 19.1539ZM29.5153 18.3189C29.9518 18.504 30.3308 18.7761 30.676 19.1552L30.9717 18.8859C30.5905 18.4672 30.1648 18.1598 29.6714 17.9506L29.5153 18.3189ZM28.0629 18.0252C28.5825 18.0252 29.0424 18.1182 29.5152 18.3189L29.6715 17.9507C29.1486 17.7287 28.6356 17.6252 28.0629 17.6252V18.0252ZM26.595 18.3193C27.0324 18.1196 27.4954 18.0252 28.0629 18.0252V17.6252C27.4469 17.6252 26.9259 17.7286 26.4288 17.9555L26.595 18.3193ZM25.9212 18.739C26.0913 18.5913 26.2984 18.4606 26.5979 18.318L26.4259 17.9568C26.1052 18.1096 25.8644 18.2585 25.6589 18.4371L25.9212 18.739ZM25.5001 19.1339C25.6108 19.0091 25.7524 18.8755 25.9157 18.7436L25.6644 18.4325C25.4873 18.5755 25.3289 18.7241 25.2009 18.8684L25.5001 19.1339ZM25.4458 19.1892L25.4927 19.1418L25.2083 18.8605L25.1614 18.908L25.4458 19.1892ZM24.8109 20.2883C25.0033 19.7925 25.2137 19.4364 25.4493 19.1855L25.1578 18.9117C24.8751 19.2127 24.6414 19.6194 24.438 20.1436L24.8109 20.2883ZM24.5789 21.6243C24.5789 21.1456 24.6577 20.6959 24.8116 20.2863L24.4372 20.1456C24.2651 20.6037 24.1789 21.1015 24.1789 21.6243H24.5789ZM24.8232 22.9549C24.6637 22.579 24.5789 22.1307 24.5789 21.6243H24.1789C24.1789 22.1742 24.2709 22.6773 24.455 23.1111L24.8232 22.9549ZM25.4624 24.047C25.2099 23.778 24.9998 23.4255 24.8264 22.9628L24.4518 23.1032C24.639 23.6025 24.8737 24.0043 25.1708 24.3208L25.4624 24.047ZM26.6226 24.8842C26.189 24.7005 25.8097 24.4283 25.4645 24.0492L25.1687 24.3185C25.55 24.7372 25.976 25.0446 26.4665 25.2525L26.6226 24.8842ZM27.4627 25.1367C27.1058 25.0648 26.8527 24.9875 26.6264 24.8859L26.4626 25.2508C26.7241 25.3682 27.0077 25.4531 27.3837 25.5288L27.4627 25.1367Z" fill="white" mask="url(#path-6-outside-3)"/>
<mask id="path-8-outside-4" maskUnits="userSpaceOnUse" x="28.8459" y="14.5156" width="3" height="3" fill="black">
<rect fill="white" x="28.8459" y="14.5156" width="3" height="3"/>
<path fill-rule="evenodd" clip-rule="evenodd" d="M31.467 16.32C31.467 16.5287 31.3934 16.7522 31.231 16.9012C31.0689 17.0651 30.8776 17.1544 30.6568 17.1544C30.4354 17.1544 30.2294 17.0799 30.082 16.9161C29.92 16.7522 29.8459 16.5584 29.8459 16.3349C29.8459 16.1113 29.92 15.903 30.082 15.754C30.244 15.5901 30.4354 15.5156 30.6568 15.5156C30.8776 15.5156 31.0839 15.5901 31.231 15.754C31.3934 15.8878 31.467 16.0817 31.467 16.32Z"/>
</mask>
<path fill-rule="evenodd" clip-rule="evenodd" d="M31.467 16.32C31.467 16.5287 31.3934 16.7522 31.231 16.9012C31.0689 17.0651 30.8776 17.1544 30.6568 17.1544C30.4354 17.1544 30.2294 17.0799 30.082 16.9161C29.92 16.7522 29.8459 16.5584 29.8459 16.3349C29.8459 16.1113 29.92 15.903 30.082 15.754C30.244 15.5901 30.4354 15.5156 30.6568 15.5156C30.8776 15.5156 31.0839 15.5901 31.231 15.754C31.3934 15.8878 31.467 16.0817 31.467 16.32Z" fill="white"/>
<path d="M31.231 16.9012L31.0956 16.7537L31.0888 16.7606L31.231 16.9012ZM30.082 16.9161L30.2309 16.7822L30.2242 16.7754L30.082 16.9161ZM30.082 15.754L30.2175 15.9014L30.2242 15.8946L30.082 15.754ZM31.231 15.754L31.0821 15.8876L31.0922 15.8987L31.1038 15.9083L31.231 15.754ZM31.267 16.32C31.267 16.487 31.2074 16.6515 31.0958 16.7539L31.3662 17.0486C31.5794 16.853 31.667 16.5704 31.667 16.32H31.267ZM31.0888 16.7606C30.959 16.8918 30.8171 16.9544 30.6568 16.9544V17.3544C30.9381 17.3544 31.1789 17.2384 31.3732 17.0419L31.0888 16.7606ZM30.6568 16.9544C30.4806 16.9544 30.333 16.8961 30.2307 16.7823L29.9333 17.0498C30.1257 17.2637 30.3903 17.3544 30.6568 17.3544V16.9544ZM30.2242 16.7754C30.1011 16.6509 30.0459 16.5084 30.0459 16.3349H29.6459C29.6459 16.6083 29.7388 16.8535 29.9398 17.0567L30.2242 16.7754ZM30.0459 16.3349C30.0459 16.1553 30.1046 16.0049 30.2174 15.9012L29.9466 15.6068C29.7354 15.801 29.6459 16.0673 29.6459 16.3349H30.0459ZM30.2242 15.8946C30.3471 15.7703 30.4866 15.7156 30.6568 15.7156V15.3156C30.3843 15.3156 30.141 15.4099 29.9398 15.6133L30.2242 15.8946ZM30.6568 15.7156C30.8325 15.7156 30.9802 15.774 31.0821 15.8876L31.3798 15.6204C31.1877 15.4063 30.9226 15.3156 30.6568 15.3156V15.7156ZM31.1038 15.9083C31.2086 15.9947 31.267 16.1247 31.267 16.32H31.667C31.667 16.0386 31.5782 15.781 31.3582 15.5997L31.1038 15.9083Z" fill="white" mask="url(#path-8-outside-4)"/>
<path d="M29.6366 21.1924V21.0924H29.5366H28.3433H28.2433V21.1924V22.3993V22.4993H28.3433C28.696 22.4993 29.0155 22.353 29.2542 22.112L29.2543 22.1119C29.4927 21.8708 29.6366 21.5479 29.6366 21.1924Z" fill="white" stroke="white" stroke-width="0.2"/>
<path d="M27.7209 21.1924V21.0924H27.6209H26.4272H26.3272V21.1924C26.3272 21.4819 26.4226 21.7568 26.5834 21.968L26.5828 21.9685L26.5919 21.9778C26.6104 21.9965 26.6261 22.0155 26.6448 22.0382L26.6458 22.0393C26.6637 22.061 26.6845 22.0863 26.7099 22.1119C26.9483 22.353 27.2682 22.4993 27.6209 22.4993H27.7209V22.3993V21.1924Z" fill="white" stroke="white" stroke-width="0.2"/>
<rect width="40.0244" height="40" rx="6" fill="white"/>
<path fill-rule="evenodd" clip-rule="evenodd" d="M22.8484 16.9047C22.3715 17.2175 21.8431 17.452 21.2373 17.5823C20.6316 17.7127 20.0127 17.7778 19.3553 17.7778H14.612L15.6689 10.0757H21.1212C22.5133 10.0757 23.4929 10.4534 24.0342 11.2095C24.5755 11.9653 24.7817 12.8514 24.6659 13.8812C24.5627 14.5851 24.3565 15.1843 24.0342 15.6797C23.7119 16.1878 23.3124 16.5921 22.8484 16.9047ZM24.163 25.48C24.0469 26.4054 23.7506 27.1612 23.2866 27.7218C22.8226 28.2824 22.2941 28.7253 21.6753 29.0641C21.0567 29.39 20.425 29.6114 19.7807 29.7288C19.1231 29.8332 18.5304 29.8983 18.002 29.8983H12.8976L14.1867 20.8798H19.3295C21.0179 20.8798 22.307 21.2708 23.1834 22.0396C24.0469 22.7954 24.382 23.9422 24.163 25.48ZM26.6639 17.1391C27.6048 16.2011 28.1718 14.9758 28.3654 13.4902C28.5071 12.3956 28.4424 11.431 28.1718 10.61C27.9014 9.78905 27.4502 9.12437 26.8442 8.59003C26.2256 8.06867 25.4653 7.66468 24.5501 7.404C23.6349 7.14332 22.6293 7 21.5211 7H12.6017L9.00537 32.9478H17.8218C19.0849 32.9478 20.2836 32.7915 21.4178 32.4656C22.552 32.1528 23.5705 31.6836 24.4725 31.0711C24.7435 30.8889 25.001 30.6931 25.246 30.4846C25.4781 30.2894 25.6971 30.0676 25.9033 29.8461C25.9162 29.8332 25.9162 29.8332 25.9293 29.8202C26.2128 29.5073 26.4834 29.1685 26.7156 28.8167C26.9862 28.3994 27.2181 27.9565 27.3986 27.4873C27.5403 27.1355 27.6433 26.7572 27.7337 26.3665C27.7465 26.3272 27.7465 26.2883 27.7597 26.2361C27.7979 26.0666 27.8238 25.8973 27.8498 25.7148C27.9014 25.3367 27.9271 24.9719 27.9142 24.6201C27.6307 24.6069 27.3726 24.5679 27.1408 24.5157C26.8958 24.4506 26.6896 24.3724 26.5219 24.268C26.1095 24.0336 25.9033 23.7078 25.9033 23.2778C25.9033 22.8476 26.1095 22.5217 26.5219 22.261C26.5607 22.2351 26.6123 22.2091 26.6511 22.1959C26.8314 22.1047 27.0375 22.0396 27.2825 21.9874C27.1536 21.74 27.0119 21.5052 26.8442 21.2838C26.8185 21.2446 26.78 21.2056 26.7412 21.1664C26.6252 21.0101 26.4834 20.8665 26.3545 20.7232C26.0322 20.3973 25.6712 20.1237 25.2588 19.8893C24.6274 19.5372 23.9441 19.3287 23.1966 19.2897V19.2116C24.5758 18.7814 25.7231 18.0907 26.6639 17.1391ZM27.7729 23.2908C27.7469 23.1994 27.7212 23.1082 27.6953 23.0171H27.6311C27.6311 23.2515 27.7081 23.46 27.837 23.6426C27.8242 23.5122 27.7982 23.3949 27.7729 23.2908Z" fill="#000035"/>
<mask id="path-14-outside-5" maskUnits="userSpaceOnUse" x="24.0264" y="26.0041" width="8" height="8" fill="black">
<rect fill="white" x="24.0264" y="26.0041" width="8" height="8"/>
<path fill-rule="evenodd" clip-rule="evenodd" d="M26.3922 27.4389C26.3243 27.4389 26.2585 27.4632 26.2066 27.5081C25.9342 27.744 25.7334 27.9914 25.5925 28.2642C25.3881 28.6414 25.2851 29.1028 25.2851 29.6377C25.2851 30.5403 25.564 31.2739 26.1384 31.8803C26.6974 32.4582 27.4049 32.7393 28.301 32.7393C28.779 32.7393 29.1843 32.656 29.5758 32.4772C29.9651 32.2993 30.2908 32.0389 30.5717 31.6808C30.7671 31.4094 30.9308 31.1037 31.0551 30.777C31.1601 30.4702 31.214 30.1031 31.214 29.6899C31.214 29.0918 31.0856 28.5659 30.8321 28.1264C30.6701 27.8204 30.4206 27.5575 30.045 27.2948C29.9269 27.2273 29.7455 27.2688 29.6574 27.3919C29.5667 27.5318 29.6217 27.7259 29.7313 27.8248C29.9691 27.9736 30.1739 28.1532 30.323 28.3453C30.5512 28.6304 30.6727 28.9742 30.6727 29.3378C30.6727 29.9007 30.4388 30.3652 29.9774 30.7191C29.5302 31.0613 28.957 31.2277 28.2237 31.2277C27.4497 31.2277 26.8574 31.0841 26.413 30.7891C25.963 30.4765 25.736 30.0371 25.736 29.4814C25.736 29.1414 25.8438 28.8138 26.056 28.5073C26.1889 28.319 26.3363 28.1777 26.5653 28.0185C26.6315 27.9692 26.6783 27.8888 26.6902 27.8003C26.7011 27.7224 26.6831 27.6492 26.6401 27.5938L26.6178 27.5543C26.5722 27.4914 26.5057 27.4513 26.4293 27.4412C26.417 27.4395 26.4045 27.4389 26.3922 27.4389ZM28.3004 33C27.345 33 26.555 32.6842 25.9527 32.0617C25.3378 31.4123 25.0264 30.5971 25.0264 29.6377C25.0264 29.0587 25.1402 28.5552 25.3646 28.1414C25.5198 27.8409 25.7405 27.5681 26.0382 27.31C26.1549 27.2091 26.3089 27.1627 26.4623 27.1829C26.6146 27.203 26.7467 27.2849 26.8342 27.4135L26.8507 27.4441C26.9309 27.5534 26.9645 27.6921 26.9451 27.8354C26.9238 27.9937 26.8393 28.1379 26.7139 28.2311C26.5054 28.3758 26.3807 28.4949 26.2658 28.6578C26.085 28.9185 25.9932 29.1959 25.9932 29.4814C25.9932 29.946 26.1825 30.3133 26.5561 30.5729C26.9551 30.8376 27.501 30.967 28.2231 30.967C28.8979 30.967 29.4206 30.818 29.821 30.5111C30.2146 30.2095 30.4142 29.8147 30.4142 29.3378C30.4142 29.0304 30.3156 28.751 30.1208 28.5076C29.9873 28.336 29.8028 28.1754 29.5866 28.0416L29.5706 28.0298C29.3433 27.8354 29.2866 27.4839 29.4434 27.2457L29.4457 27.2423C29.61 27.0098 29.94 26.9346 30.1818 27.0744C30.6016 27.3674 30.8765 27.6595 31.0565 27.9992C31.3308 28.4747 31.4712 29.0451 31.4712 29.6899C31.4712 30.1319 31.4124 30.5279 31.2966 30.8664C31.1626 31.2185 30.988 31.5443 30.7764 31.8385C30.4701 32.2289 30.1028 32.5222 29.6813 32.7148C29.2552 32.9095 28.8163 33 28.3004 33Z"/>
</mask>
<path fill-rule="evenodd" clip-rule="evenodd" d="M26.3922 27.4389C26.3243 27.4389 26.2585 27.4632 26.2066 27.5081C25.9342 27.744 25.7334 27.9914 25.5925 28.2642C25.3881 28.6414 25.2851 29.1028 25.2851 29.6377C25.2851 30.5403 25.564 31.2739 26.1384 31.8803C26.6974 32.4582 27.4049 32.7393 28.301 32.7393C28.779 32.7393 29.1843 32.656 29.5758 32.4772C29.9651 32.2993 30.2908 32.0389 30.5717 31.6808C30.7671 31.4094 30.9308 31.1037 31.0551 30.777C31.1601 30.4702 31.214 30.1031 31.214 29.6899C31.214 29.0918 31.0856 28.5659 30.8321 28.1264C30.6701 27.8204 30.4206 27.5575 30.045 27.2948C29.9269 27.2273 29.7455 27.2688 29.6574 27.3919C29.5667 27.5318 29.6217 27.7259 29.7313 27.8248C29.9691 27.9736 30.1739 28.1532 30.323 28.3453C30.5512 28.6304 30.6727 28.9742 30.6727 29.3378C30.6727 29.9007 30.4388 30.3652 29.9774 30.7191C29.5302 31.0613 28.957 31.2277 28.2237 31.2277C27.4497 31.2277 26.8574 31.0841 26.413 30.7891C25.963 30.4765 25.736 30.0371 25.736 29.4814C25.736 29.1414 25.8438 28.8138 26.056 28.5073C26.1889 28.319 26.3363 28.1777 26.5653 28.0185C26.6315 27.9692 26.6783 27.8888 26.6902 27.8003C26.7011 27.7224 26.6831 27.6492 26.6401 27.5938L26.6178 27.5543C26.5722 27.4914 26.5057 27.4513 26.4293 27.4412C26.417 27.4395 26.4045 27.4389 26.3922 27.4389ZM28.3004 33C27.345 33 26.555 32.6842 25.9527 32.0617C25.3378 31.4123 25.0264 30.5971 25.0264 29.6377C25.0264 29.0587 25.1402 28.5552 25.3646 28.1414C25.5198 27.8409 25.7405 27.5681 26.0382 27.31C26.1549 27.2091 26.3089 27.1627 26.4623 27.1829C26.6146 27.203 26.7467 27.2849 26.8342 27.4135L26.8507 27.4441C26.9309 27.5534 26.9645 27.6921 26.9451 27.8354C26.9238 27.9937 26.8393 28.1379 26.7139 28.2311C26.5054 28.3758 26.3807 28.4949 26.2658 28.6578C26.085 28.9185 25.9932 29.1959 25.9932 29.4814C25.9932 29.946 26.1825 30.3133 26.5561 30.5729C26.9551 30.8376 27.501 30.967 28.2231 30.967C28.8979 30.967 29.4206 30.818 29.821 30.5111C30.2146 30.2095 30.4142 29.8147 30.4142 29.3378C30.4142 29.0304 30.3156 28.751 30.1208 28.5076C29.9873 28.336 29.8028 28.1754 29.5866 28.0416L29.5706 28.0298C29.3433 27.8354 29.2866 27.4839 29.4434 27.2457L29.4457 27.2423C29.61 27.0098 29.94 26.9346 30.1818 27.0744C30.6016 27.3674 30.8765 27.6595 31.0565 27.9992C31.3308 28.4747 31.4712 29.0451 31.4712 29.6899C31.4712 30.1319 31.4124 30.5279 31.2966 30.8664C31.1626 31.2185 30.988 31.5443 30.7764 31.8385C30.4701 32.2289 30.1028 32.5222 29.6813 32.7148C29.2552 32.9095 28.8163 33 28.3004 33Z" fill="white"/>
<path d="M26.2066 27.5081L26.3375 27.6593L26.3375 27.6593L26.2066 27.5081ZM25.5925 28.2642L25.7684 28.3596L25.7702 28.356L25.5925 28.2642ZM26.1384 31.8803L25.9932 32.0178L25.9946 32.0194L26.1384 31.8803ZM29.5758 32.4772L29.6589 32.6591L29.659 32.6591L29.5758 32.4772ZM30.5717 31.6808L30.7292 31.8043L30.734 31.7976L30.5717 31.6808ZM31.0551 30.777L31.2421 30.8482L31.2444 30.8418L31.0551 30.777ZM30.8321 28.1264L30.6552 28.22L30.6589 28.2263L30.8321 28.1264ZM30.045 27.2948L30.1596 27.1309L30.1521 27.1256L30.1442 27.1211L30.045 27.2948ZM29.6574 27.3919L29.4946 27.2754L29.4896 27.2831L29.6574 27.3919ZM29.7313 27.8248L29.5972 27.9732L29.6103 27.985L29.6252 27.9943L29.7313 27.8248ZM30.323 28.3453L30.1651 28.4679L30.1669 28.4702L30.323 28.3453ZM29.9774 30.7191L30.0989 30.8779L30.0991 30.8778L29.9774 30.7191ZM26.413 30.7891L26.2989 30.9534L26.3024 30.9558L26.413 30.7891ZM26.056 28.5073L25.8926 28.392L25.8915 28.3935L26.056 28.5073ZM26.5653 28.0185L26.6795 28.1829L26.6848 28.1789L26.5653 28.0185ZM26.6902 27.8003L26.4922 27.7727L26.4921 27.7734L26.6902 27.8003ZM26.6401 27.5938L26.4658 27.6919L26.4731 27.7049L26.4822 27.7166L26.6401 27.5938ZM26.6178 27.5543L26.7921 27.4561L26.7864 27.4461L26.7797 27.4368L26.6178 27.5543ZM26.4293 27.4412L26.4014 27.6393L26.4031 27.6395L26.4293 27.4412ZM25.9527 32.0617L25.8074 32.1992L25.8089 32.2007L25.9527 32.0617ZM25.3646 28.1414L25.5404 28.2368L25.5423 28.2331L25.3646 28.1414ZM26.0382 27.31L25.9074 27.1588L25.9072 27.1589L26.0382 27.31ZM26.4623 27.1829L26.4886 26.9846L26.4884 26.9846L26.4623 27.1829ZM26.8342 27.4135L27.0101 27.3184L27.0053 27.3094L26.9995 27.301L26.8342 27.4135ZM26.8507 27.4441L26.6748 27.5393L26.6814 27.5513L26.6895 27.5624L26.8507 27.4441ZM26.9451 27.8354L26.747 27.8086L26.7469 27.8086L26.9451 27.8354ZM26.7139 28.2311L26.828 28.3954L26.8331 28.3917L26.7139 28.2311ZM26.2658 28.6578L26.1024 28.5425L26.1015 28.5438L26.2658 28.6578ZM26.5561 30.5729L26.442 30.7371L26.4456 30.7395L26.5561 30.5729ZM29.821 30.5111L29.9427 30.6699L29.9427 30.6699L29.821 30.5111ZM30.1208 28.5076L29.9629 28.6304L29.9646 28.6326L30.1208 28.5076ZM29.5866 28.0416L29.4676 28.2023L29.4743 28.2073L29.4813 28.2117L29.5866 28.0416ZM29.5706 28.0298L29.4403 28.1822L29.4516 28.1905L29.5706 28.0298ZM29.4434 27.2457L29.2765 27.1356L29.2764 27.1357L29.4434 27.2457ZM29.4457 27.2423L29.2823 27.1268L29.2787 27.1322L29.4457 27.2423ZM30.1818 27.0744L30.2963 26.9104L30.2893 26.9056L30.2819 26.9013L30.1818 27.0744ZM31.0565 27.9992L30.8796 28.0929L30.8833 28.0992L31.0565 27.9992ZM31.2966 30.8664L31.4836 30.9376L31.4859 30.9311L31.2966 30.8664ZM30.7764 31.8385L30.9339 31.962L30.9388 31.9553L30.7764 31.8385ZM29.6813 32.7148L29.7644 32.8967L29.7644 32.8967L29.6813 32.7148ZM26.3922 27.2389C26.2766 27.2389 26.1641 27.2802 26.0756 27.357L26.3375 27.6593C26.3528 27.6461 26.3721 27.6389 26.3922 27.6389V27.2389ZM26.0756 27.357C25.7873 27.6067 25.5692 27.8736 25.4148 28.1725L25.7702 28.356C25.8976 28.1093 26.0811 27.8813 26.3375 27.6593L26.0756 27.357ZM25.4167 28.1689C25.1929 28.5818 25.0851 29.0777 25.0851 29.6377H25.4851C25.4851 29.1278 25.5833 28.701 25.7684 28.3595L25.4167 28.1689ZM25.0851 29.6377C25.0851 30.5869 25.3806 31.3711 25.9932 32.0178L26.2836 31.7428C25.7474 31.1767 25.4851 30.4937 25.4851 29.6377H25.0851ZM25.9946 32.0194C26.5958 32.6408 27.3575 32.9393 28.301 32.9393V32.5393C27.4523 32.5393 26.799 32.2755 26.2821 31.7412L25.9946 32.0194ZM28.301 32.9393C28.8045 32.9393 29.2385 32.8511 29.6589 32.6591L29.4928 32.2953C29.13 32.4609 28.7535 32.5393 28.301 32.5393V32.9393ZM29.659 32.6591C30.0791 32.4671 30.4297 32.1859 30.7291 31.8042L30.4144 31.5573C30.1519 31.8919 29.8511 32.1315 29.4927 32.2953L29.659 32.6591ZM30.734 31.7976C30.9399 31.5116 31.1118 31.1905 31.242 30.8482L30.8682 30.7059C30.7498 31.017 30.5942 31.3072 30.4094 31.5639L30.734 31.7976ZM31.2444 30.8418C31.358 30.5094 31.414 30.1196 31.414 29.6899H31.014C31.014 30.0867 30.9621 30.431 30.8659 30.7123L31.2444 30.8418ZM31.414 29.6899C31.414 29.0631 31.2793 28.5014 31.0053 28.0264L30.6589 28.2263C30.8919 28.6303 31.014 29.1206 31.014 29.6899H31.414ZM31.0089 28.0328C30.8279 27.6911 30.5529 27.4059 30.1596 27.1309L29.9303 27.4586C30.2883 27.709 30.5123 27.9498 30.6553 28.22L31.0089 28.0328ZM30.1442 27.1211C30.0323 27.0572 29.9031 27.0506 29.7926 27.0776C29.681 27.1047 29.5701 27.1702 29.4948 27.2755L29.82 27.5083C29.8328 27.4905 29.8566 27.4737 29.8873 27.4662C29.9191 27.4584 29.9396 27.4649 29.9457 27.4684L30.1442 27.1211ZM29.4896 27.2831C29.41 27.4059 29.399 27.5454 29.4233 27.664C29.4474 27.7812 29.5087 27.8933 29.5972 27.9732L29.8653 27.6763C29.8443 27.6573 29.8233 27.6229 29.8151 27.5834C29.8073 27.5453 29.8141 27.5178 29.8252 27.5007L29.4896 27.2831ZM29.6252 27.9943C29.8464 28.1327 30.0325 28.2972 30.1651 28.4679L30.481 28.2226C30.3152 28.0092 30.0918 27.8144 29.8373 27.6552L29.6252 27.9943ZM30.1669 28.4702C30.3669 28.7203 30.4727 29.02 30.4727 29.3378H30.8727C30.8727 28.9283 30.7354 28.5406 30.4792 28.2203L30.1669 28.4702ZM30.4727 29.3378C30.4727 29.8361 30.2697 30.2429 29.8557 30.5603L30.0991 30.8778C30.608 30.4876 30.8727 29.9653 30.8727 29.3378H30.4727ZM29.8558 30.5602C29.4528 30.8687 28.9263 31.0277 28.2237 31.0277V31.4277C28.9876 31.4277 29.6076 31.254 30.0989 30.8779L29.8558 30.5602ZM28.2237 31.0277C27.4722 31.0277 26.9235 30.888 26.5237 30.6225L26.3024 30.9558C26.7912 31.2803 27.4272 31.4277 28.2237 31.4277V31.0277ZM26.5271 30.6249C26.132 30.3504 25.936 29.9729 25.936 29.4814H25.536C25.536 30.1013 25.794 30.6027 26.2989 30.9534L26.5271 30.6249ZM25.936 29.4814C25.936 29.1861 26.029 28.8977 26.2204 28.6211L25.8915 28.3935C25.6586 28.73 25.536 29.0967 25.536 29.4814H25.936ZM26.2194 28.6226C26.3363 28.457 26.4656 28.3314 26.6795 28.1828L26.4512 27.8543C26.207 28.024 26.0415 28.181 25.8926 28.392L26.2194 28.6226ZM26.6848 28.1789C26.7966 28.0956 26.8697 27.9657 26.8884 27.8271L26.4921 27.7734C26.4869 27.8118 26.4664 27.8428 26.4458 27.8582L26.6848 28.1789ZM26.8883 27.8278C26.9057 27.703 26.878 27.574 26.7979 27.471L26.4822 27.7166C26.4882 27.7243 26.4965 27.7417 26.4922 27.7727L26.8883 27.8278ZM26.8143 27.4957L26.7921 27.4561L26.4435 27.6524L26.4658 27.6919L26.8143 27.4957ZM26.7797 27.4368C26.7024 27.3304 26.5874 27.2604 26.4555 27.243L26.4031 27.6395C26.4241 27.6423 26.4419 27.6524 26.456 27.6718L26.7797 27.4368ZM26.4572 27.2432C26.4328 27.2398 26.4103 27.2389 26.3922 27.2389V27.6389C26.3953 27.6389 26.3975 27.639 26.3992 27.6391C26.4008 27.6392 26.4015 27.6393 26.4014 27.6393L26.4572 27.2432ZM28.3004 32.8C27.393 32.8 26.657 32.502 26.0964 31.9226L25.8089 32.2007C26.453 32.8665 27.2969 33.2 28.3004 33.2V32.8ZM26.0979 31.9242C25.5209 31.3148 25.2264 30.55 25.2264 29.6377H24.8264C24.8264 30.6441 25.1547 31.5098 25.8074 32.1992L26.0979 31.9242ZM25.2264 29.6377C25.2264 29.0844 25.3351 28.6153 25.5404 28.2367L25.1888 28.046C24.9452 28.4951 24.8264 29.0329 24.8264 29.6377H25.2264ZM25.5423 28.2331C25.6841 27.9585 25.8877 27.7052 26.1692 27.4612L25.9072 27.1589C25.5933 27.431 25.3554 27.7233 25.1869 28.0496L25.5423 28.2331ZM26.1691 27.4613C26.2426 27.3976 26.3396 27.3684 26.4362 27.3811L26.4884 26.9846C26.2782 26.9569 26.0671 27.0206 25.9074 27.1588L26.1691 27.4613ZM26.436 27.3811C26.5311 27.3937 26.6129 27.4439 26.6689 27.5261L26.9995 27.301C26.8804 27.126 26.6981 27.0124 26.4886 26.9846L26.436 27.3811ZM26.6583 27.5087L26.6748 27.5393L27.0266 27.3489L27.0101 27.3184L26.6583 27.5087ZM26.6895 27.5624C26.737 27.6272 26.7599 27.7131 26.747 27.8086L27.1433 27.8622C27.1692 27.6711 27.1248 27.4796 27.012 27.3258L26.6895 27.5624ZM26.7469 27.8086C26.7326 27.9147 26.6759 28.0102 26.5947 28.0705L26.8331 28.3917C27.0028 28.2657 27.1149 28.0728 27.1433 27.8622L26.7469 27.8086ZM26.5998 28.0668C26.3769 28.2216 26.2338 28.3563 26.1024 28.5425L26.4292 28.7731C26.5277 28.6335 26.6339 28.5301 26.8279 28.3953L26.5998 28.0668ZM26.1015 28.5438C25.9001 28.8341 25.7932 29.1507 25.7932 29.4814H26.1932C26.1932 29.2411 26.2699 29.0029 26.4302 28.7718L26.1015 28.5438ZM25.7932 29.4814C25.7932 30.0097 26.0132 30.4392 26.442 30.7371L26.6702 30.4086C26.3518 30.1874 26.1932 29.8822 26.1932 29.4814H25.7932ZM26.4456 30.7395C26.89 31.0344 27.4802 31.167 28.2231 31.167V30.767C27.5218 30.767 27.0203 30.6408 26.6667 30.4062L26.4456 30.7395ZM28.2231 31.167C28.927 31.167 29.4972 31.0113 29.9427 30.6699L29.6994 30.3524C29.344 30.6247 28.8687 30.767 28.2231 30.767V31.167ZM29.9427 30.6699C30.3833 30.3322 30.6142 29.8798 30.6142 29.3378H30.2142C30.2142 29.7497 30.0459 30.0869 29.6994 30.3524L29.9427 30.6699ZM30.6142 29.3378C30.6142 28.9843 30.4997 28.661 30.2769 28.3826L29.9646 28.6326C30.1314 28.841 30.2142 29.0765 30.2142 29.3378H30.6142ZM30.2786 28.3848C30.1282 28.1914 29.9247 28.0156 29.6919 27.8715L29.4813 28.2117C29.6809 28.3352 29.8464 28.4806 29.9629 28.6304L30.2786 28.3848ZM29.7056 27.8809L29.6896 27.869L29.4516 28.1905L29.4676 28.2023L29.7056 27.8809ZM29.7006 27.8778C29.5444 27.7442 29.5129 27.5038 29.6105 27.3557L29.2764 27.1357C29.0602 27.464 29.1422 27.9266 29.4407 28.1818L29.7006 27.8778ZM29.6104 27.3558L29.6127 27.3524L29.2787 27.1322L29.2765 27.1356L29.6104 27.3558ZM29.609 27.3577C29.7154 27.2072 29.932 27.161 30.0817 27.2476L30.2819 26.9013C29.9479 26.7081 29.5046 26.8125 29.2824 27.1268L29.609 27.3577ZM30.0673 27.2384C30.4689 27.5187 30.7186 27.7886 30.8798 28.0928L31.2332 27.9056C31.0345 27.5304 30.7343 27.2161 30.2963 26.9104L30.0673 27.2384ZM30.8833 28.0992C31.1373 28.5395 31.2712 29.0742 31.2712 29.6899H31.6712C31.6712 29.016 31.5244 28.41 31.2297 27.8993L30.8833 28.0992ZM31.2712 29.6899C31.2712 30.1149 31.2146 30.4882 31.1074 30.8017L31.4859 30.9311C31.6102 30.5675 31.6712 30.149 31.6712 29.6899H31.2712ZM31.1097 30.7952C30.9816 31.1317 30.8152 31.4421 30.6141 31.7217L30.9388 31.9553C31.1609 31.6466 31.3435 31.3053 31.4835 30.9376L31.1097 30.7952ZM30.6191 31.715C30.3312 32.082 29.9888 32.3544 29.5982 32.5329L29.7644 32.8967C30.2168 32.69 30.6091 32.3759 30.9338 31.9619L30.6191 31.715ZM29.5982 32.5329C29.2008 32.7144 28.7906 32.8 28.3004 32.8V33.2C28.842 33.2 29.3096 33.1045 29.7644 32.8967L29.5982 32.5329Z" fill="white" mask="url(#path-14-outside-5)"/>
<mask id="path-16-outside-6" maskUnits="userSpaceOnUse" x="24.1565" y="26.1344" width="8" height="7" fill="black">
<rect fill="white" x="24.1565" y="26.1344" width="8" height="7"/>
<path fill-rule="evenodd" clip-rule="evenodd" d="M29.5519 27.3178C29.6805 27.1353 29.9383 27.0834 30.1188 27.1875C30.454 27.4222 30.7503 27.6959 30.9439 28.0606C31.2146 28.5298 31.3432 29.0774 31.3432 29.6899C31.3432 30.0936 31.2918 30.4846 31.1758 30.8237C31.0469 31.1626 30.8792 31.4751 30.6733 31.7621C30.3767 32.1398 30.0287 32.4135 29.6292 32.596C29.2293 32.7785 28.8041 32.8697 28.3013 32.8697C27.3733 32.8697 26.6258 32.5701 26.046 31.9706C25.4659 31.3581 25.1565 30.589 25.1565 29.6377C25.1565 29.0901 25.2597 28.608 25.4788 28.204C25.6333 27.9044 25.8524 27.6437 26.1233 27.4089C26.3035 27.2527 26.587 27.2786 26.729 27.4871L26.7419 27.5133C26.8839 27.6959 26.832 27.9825 26.6389 28.1258C26.4324 28.2691 26.2907 28.3995 26.1618 28.582C25.9813 28.8427 25.8655 29.1423 25.8655 29.4811C25.8655 29.9895 26.0717 30.3935 26.4841 30.6801C26.8965 30.9538 27.4637 31.0971 28.2243 31.0971C28.9202 31.0971 29.4746 30.9408 29.8998 30.6152C30.325 30.2894 30.5441 29.8592 30.5441 29.3378C30.5441 29.012 30.4411 28.6994 30.2221 28.4254C30.0803 28.2432 29.887 28.0736 29.6548 27.9303C29.4871 27.787 29.423 27.5133 29.5519 27.3178Z"/>
</mask>
<path fill-rule="evenodd" clip-rule="evenodd" d="M29.5519 27.3178C29.6805 27.1353 29.9383 27.0834 30.1188 27.1875C30.454 27.4222 30.7503 27.6959 30.9439 28.0606C31.2146 28.5298 31.3432 29.0774 31.3432 29.6899C31.3432 30.0936 31.2918 30.4846 31.1758 30.8237C31.0469 31.1626 30.8792 31.4751 30.6733 31.7621C30.3767 32.1398 30.0287 32.4135 29.6292 32.596C29.2293 32.7785 28.8041 32.8697 28.3013 32.8697C27.3733 32.8697 26.6258 32.5701 26.046 31.9706C25.4659 31.3581 25.1565 30.589 25.1565 29.6377C25.1565 29.0901 25.2597 28.608 25.4788 28.204C25.6333 27.9044 25.8524 27.6437 26.1233 27.4089C26.3035 27.2527 26.587 27.2786 26.729 27.4871L26.7419 27.5133C26.8839 27.6959 26.832 27.9825 26.6389 28.1258C26.4324 28.2691 26.2907 28.3995 26.1618 28.582C25.9813 28.8427 25.8655 29.1423 25.8655 29.4811C25.8655 29.9895 26.0717 30.3935 26.4841 30.6801C26.8965 30.9538 27.4637 31.0971 28.2243 31.0971C28.9202 31.0971 29.4746 30.9408 29.8998 30.6152C30.325 30.2894 30.5441 29.8592 30.5441 29.3378C30.5441 29.012 30.4411 28.6994 30.2221 28.4254C30.0803 28.2432 29.887 28.0736 29.6548 27.9303C29.4871 27.787 29.423 27.5133 29.5519 27.3178Z" fill="#000035"/>
<path d="M30.1188 27.1875L30.2336 27.0237L30.2264 27.0186L30.2188 27.0142L30.1188 27.1875ZM30.9439 28.0606L30.7672 28.1545L30.7707 28.1606L30.9439 28.0606ZM31.1758 30.8237L31.3628 30.8949L31.365 30.8885L31.1758 30.8237ZM30.6733 31.7621L30.8307 31.8857L30.8358 31.8787L30.6733 31.7621ZM29.6292 32.596L29.7122 32.778L29.7123 32.7779L29.6292 32.596ZM26.046 31.9706L25.9008 32.1081L25.9022 32.1096L26.046 31.9706ZM25.4788 28.204L25.6546 28.2993L25.6565 28.2957L25.4788 28.204ZM26.1233 27.4089L26.2543 27.5601L26.2543 27.56L26.1233 27.4089ZM26.729 27.4871L26.9087 27.3992L26.9024 27.3863L26.8943 27.3745L26.729 27.4871ZM26.7419 27.5133L26.5622 27.6012L26.5713 27.6198L26.584 27.6361L26.7419 27.5133ZM26.6389 28.1258L26.753 28.2902L26.7581 28.2864L26.6389 28.1258ZM26.1618 28.582L25.9984 28.4666L25.9974 28.4681L26.1618 28.582ZM26.4841 30.6801L26.3699 30.8444L26.3735 30.8468L26.4841 30.6801ZM29.8998 30.6152L30.0214 30.7741L30.0215 30.774L29.8998 30.6152ZM30.2221 28.4254L30.0642 28.5482L30.0659 28.5503L30.2221 28.4254ZM29.6548 27.9303L29.5249 28.0823L29.5366 28.0924L29.5498 28.1005L29.6548 27.9303ZM29.7154 27.433C29.7845 27.3349 29.9282 27.3084 30.0189 27.3607L30.2188 27.0142C29.9485 26.8584 29.5765 26.9357 29.3884 27.2026L29.7154 27.433ZM30.0041 27.3513C30.3258 27.5766 30.5942 27.8285 30.7673 28.1544L31.1206 27.9669C30.9063 27.5633 30.5821 27.2678 30.2336 27.0237L30.0041 27.3513ZM30.7707 28.1606C31.0207 28.5939 31.1432 29.1057 31.1432 29.6899H31.5432C31.5432 29.0492 31.4085 28.4657 31.1172 27.9607L30.7707 28.1606ZM31.1432 29.6899C31.1432 30.078 31.0937 30.446 30.9866 30.759L31.365 30.8885C31.49 30.5232 31.5432 30.1092 31.5432 29.6899H31.1432ZM30.9888 30.7526C30.866 31.0756 30.7064 31.3728 30.5108 31.6455L30.8358 31.8787C31.0519 31.5775 31.2278 31.2495 31.3627 30.8949L30.9888 30.7526ZM30.516 31.6386C30.2382 31.9923 29.9153 32.2454 29.5461 32.4141L29.7123 32.7779C30.1422 32.5815 30.5152 32.2873 30.8306 31.8856L30.516 31.6386ZM29.5461 32.4141C29.1745 32.5837 28.778 32.6697 28.3013 32.6697V33.0697C28.8303 33.0697 29.2841 32.9734 29.7122 32.778L29.5461 32.4141ZM28.3013 32.6697C27.4212 32.6697 26.7277 32.3878 26.1898 31.8315L25.9022 32.1096C26.5239 32.7524 27.3254 33.0697 28.3013 33.0697V32.6697ZM26.1912 31.833C25.6483 31.2598 25.3565 30.5408 25.3565 29.6377H24.9565C24.9565 30.6372 25.2835 31.4563 25.9008 32.1081L26.1912 31.833ZM25.3565 29.6377C25.3565 29.1147 25.4551 28.6672 25.6546 28.2993L25.3029 28.1086C25.0644 28.5487 24.9565 29.0655 24.9565 29.6377H25.3565ZM25.6565 28.2957C25.7972 28.023 25.9985 27.7817 26.2543 27.5601L25.9923 27.2578C25.7063 27.5056 25.4695 27.7857 25.301 28.1123L25.6565 28.2957ZM26.2543 27.56C26.348 27.4788 26.4919 27.4943 26.5638 27.5997L26.8943 27.3745C26.6821 27.0629 26.2591 27.0265 25.9923 27.2578L26.2543 27.56ZM26.5494 27.575L26.5622 27.6012L26.9215 27.4255L26.9087 27.3992L26.5494 27.575ZM26.584 27.6361C26.6491 27.7197 26.6336 27.8807 26.5197 27.9652L26.7581 28.2864C27.0304 28.0843 27.1187 27.672 26.8997 27.3905L26.584 27.6361ZM26.5249 27.9615C26.3046 28.1144 26.1441 28.2603 25.9984 28.4666L26.3252 28.6974C26.4373 28.5386 26.5603 28.4239 26.753 28.2901L26.5249 27.9615ZM25.9974 28.4681C25.7984 28.7555 25.6655 29.0941 25.6655 29.4811H26.0655C26.0655 29.1905 26.1642 28.9299 26.3262 28.6959L25.9974 28.4681ZM25.6655 29.4811C25.6655 30.053 25.9022 30.5192 26.3699 30.8444L26.5982 30.5159C26.2412 30.2678 26.0655 29.926 26.0655 29.4811H25.6655ZM26.3735 30.8468C26.8302 31.1498 27.441 31.2971 28.2243 31.2971V30.8971C27.4864 30.8971 26.9627 30.7577 26.5947 30.5135L26.3735 30.8468ZM28.2243 31.2971C28.9497 31.2971 29.5513 31.134 30.0214 30.7741L29.7782 30.4564C29.3979 30.7477 28.8907 30.8971 28.2243 30.8971V31.2971ZM30.0215 30.774C30.4938 30.4121 30.7441 29.9242 30.7441 29.3378H30.3441C30.3441 29.7941 30.1563 30.1667 29.7782 30.4565L30.0215 30.774ZM30.7441 29.3378C30.7441 28.9675 30.6263 28.6107 30.3783 28.3005L30.0659 28.5503C30.256 28.7881 30.3441 29.0564 30.3441 29.3378H30.7441ZM30.38 28.3026C30.2215 28.0988 30.0092 27.914 29.7599 27.7601L29.5498 28.1005C29.7648 28.2332 29.9392 28.3875 30.0642 28.5482L30.38 28.3026ZM29.7848 27.7783C29.681 27.6896 29.6543 27.5259 29.7189 27.4279L29.3849 27.2077C29.1917 27.5008 29.2933 27.8844 29.5249 28.0823L29.7848 27.7783Z" fill="#000035" mask="url(#path-16-outside-6)"/>
<mask id="path-18-outside-7" maskUnits="userSpaceOnUse" x="24.0789" y="18.9677" width="8" height="8" fill="black">
<rect fill="white" x="24.0789" y="18.9677" width="8" height="8"/>
<path fill-rule="evenodd" clip-rule="evenodd" d="M27.3243 22.1408C27.5818 22.0817 27.8887 22.0528 28.2623 22.0528C28.955 22.0528 29.5146 22.1742 29.9238 22.4127C30.3029 22.6402 30.4791 22.9274 30.4791 23.317C30.4791 23.6613 30.2923 23.9479 29.9238 24.1694C29.5263 24.4079 28.9673 24.529 28.2623 24.529C28.1474 24.529 28.0384 24.529 27.9332 24.516C27.6828 24.5045 27.4298 24.4705 27.1868 24.416C26.9396 24.3502 26.7488 24.2744 26.5985 24.1809C26.2263 23.9693 26.0455 23.6824 26.0455 23.304C26.0455 22.9266 26.2229 22.6385 26.6068 22.3957C26.6358 22.3764 26.6769 22.3553 26.7049 22.3461L26.722 22.3389C26.8842 22.2567 27.075 22.1938 27.3243 22.1408ZM27.7417 26.5346C27.9237 26.5611 28.1116 26.5882 28.3144 26.5882C28.8129 26.5882 29.2381 26.5063 29.6576 26.3284C30.0723 26.1326 30.4325 25.8681 30.7297 25.5417C30.9632 25.281 31.1563 24.9486 31.322 24.5229C31.4643 24.1435 31.5362 23.7288 31.5362 23.283C31.5142 22.9168 31.4683 22.4436 31.3086 22.0318C31.1538 21.6188 30.9601 21.2858 30.7163 21.0133C30.3986 20.6644 30.0466 20.4109 29.6399 20.2384C29.2045 20.0536 28.779 19.9677 28.3013 19.9677C27.7836 19.9677 27.3533 20.0542 26.9446 20.2407C26.6734 20.3699 26.4774 20.4922 26.3132 20.6349C26.1643 20.7552 26.0331 20.8786 25.9287 20.9963L25.8877 21.0378C25.6609 21.2791 25.4667 21.6128 25.2936 22.0589C25.151 22.4384 25.0789 22.8527 25.0789 23.2908C25.0789 23.7527 25.1561 24.1688 25.3064 24.5229C25.4642 24.9437 25.6587 25.2735 25.8991 25.5296C26.2168 25.8785 26.569 26.132 26.9731 26.3033C27.1864 26.399 27.4211 26.47 27.7417 26.5346Z"/>
</mask>
<path fill-rule="evenodd" clip-rule="evenodd" d="M27.3243 22.1408C27.5818 22.0817 27.8887 22.0528 28.2623 22.0528C28.955 22.0528 29.5146 22.1742 29.9238 22.4127C30.3029 22.6402 30.4791 22.9274 30.4791 23.317C30.4791 23.6613 30.2923 23.9479 29.9238 24.1694C29.5263 24.4079 28.9673 24.529 28.2623 24.529C28.1474 24.529 28.0384 24.529 27.9332 24.516C27.6828 24.5045 27.4298 24.4705 27.1868 24.416C26.9396 24.3502 26.7488 24.2744 26.5985 24.1809C26.2263 23.9693 26.0455 23.6824 26.0455 23.304C26.0455 22.9266 26.2229 22.6385 26.6068 22.3957C26.6358 22.3764 26.6769 22.3553 26.7049 22.3461L26.722 22.3389C26.8842 22.2567 27.075 22.1938 27.3243 22.1408ZM27.7417 26.5346C27.9237 26.5611 28.1116 26.5882 28.3144 26.5882C28.8129 26.5882 29.2381 26.5063 29.6576 26.3284C30.0723 26.1326 30.4325 25.8681 30.7297 25.5417C30.9632 25.281 31.1563 24.9486 31.322 24.5229C31.4643 24.1435 31.5362 23.7288 31.5362 23.283C31.5142 22.9168 31.4683 22.4436 31.3086 22.0318C31.1538 21.6188 30.9601 21.2858 30.7163 21.0133C30.3986 20.6644 30.0466 20.4109 29.6399 20.2384C29.2045 20.0536 28.779 19.9677 28.3013 19.9677C27.7836 19.9677 27.3533 20.0542 26.9446 20.2407C26.6734 20.3699 26.4774 20.4922 26.3132 20.6349C26.1643 20.7552 26.0331 20.8786 25.9287 20.9963L25.8877 21.0378C25.6609 21.2791 25.4667 21.6128 25.2936 22.0589C25.151 22.4384 25.0789 22.8527 25.0789 23.2908C25.0789 23.7527 25.1561 24.1688 25.3064 24.5229C25.4642 24.9437 25.6587 25.2735 25.8991 25.5296C26.2168 25.8785 26.569 26.132 26.9731 26.3033C27.1864 26.399 27.4211 26.47 27.7417 26.5346Z" fill="#000035"/>
<path d="M27.3243 22.1408L27.3659 22.3364L27.369 22.3357L27.3243 22.1408ZM29.9238 22.4127L30.0268 22.2412L30.0245 22.2399L29.9238 22.4127ZM29.9238 24.1694L30.0267 24.3409L30.0269 24.3408L29.9238 24.1694ZM27.9332 24.516L27.9577 24.3175L27.95 24.3166L27.9424 24.3162L27.9332 24.516ZM27.1868 24.416L27.1354 24.6094L27.1431 24.6111L27.1868 24.416ZM26.5985 24.1809L26.7042 24.0109L26.6974 24.0071L26.5985 24.1809ZM26.6068 22.3957L26.7137 22.5647L26.7174 22.5623L26.6068 22.3957ZM26.7049 22.3461L26.7676 22.536L26.7751 22.5335L26.7825 22.5304L26.7049 22.3461ZM26.722 22.3389L26.7998 22.5236L26.8123 22.5173L26.722 22.3389ZM27.7417 26.5346L27.7021 26.7309L27.7128 26.7325L27.7417 26.5346ZM29.6576 26.3284L29.7358 26.5127L29.743 26.5092L29.6576 26.3284ZM30.7297 25.5417L30.8776 25.6764L30.8786 25.6752L30.7297 25.5417ZM31.322 24.5229L31.5084 24.5955L31.5093 24.5932L31.322 24.5229ZM31.5362 23.283H31.7366L31.7358 23.271L31.5362 23.283ZM31.3086 22.0318L31.1213 22.102L31.1221 22.1041L31.3086 22.0318ZM30.7163 21.0133L30.8653 20.8799L30.8641 20.8786L30.7163 21.0133ZM29.6399 20.2384L29.5618 20.4225L29.5619 20.4226L29.6399 20.2384ZM26.9446 20.2407L26.8615 20.0588L26.8586 20.0602L26.9446 20.2407ZM26.3132 20.6349L26.4389 20.7906L26.4444 20.7859L26.3132 20.6349ZM25.9287 20.9963L26.0711 21.1371L26.0783 21.129L25.9287 20.9963ZM25.8877 21.0378L25.7454 20.8971L25.7419 20.9008L25.8877 21.0378ZM25.2936 22.0589L25.1071 21.9865L25.1064 21.9885L25.2936 22.0589ZM25.3064 24.5229L25.4939 24.4527L25.4905 24.4448L25.3064 24.5229ZM25.8991 25.5296L26.047 25.3949L26.0449 25.3927L25.8991 25.5296ZM26.9731 26.3033L27.055 26.1208L27.0512 26.1191L26.9731 26.3033ZM28.2623 21.8528C27.8792 21.8528 27.5564 21.8823 27.2796 21.9458L27.369 22.3357C27.6073 22.281 27.8981 22.2528 28.2623 22.2528V21.8528ZM30.0245 22.2399C29.5738 21.9772 28.9752 21.8528 28.2623 21.8528V22.2528C28.9349 22.2528 29.4554 22.3712 29.8231 22.5855L30.0245 22.2399ZM30.6791 23.317C30.6791 23.0904 30.6273 22.8839 30.514 22.6994C30.4017 22.5164 30.2361 22.3669 30.0268 22.2412L29.8209 22.5842C29.9905 22.686 30.1027 22.7939 30.1732 22.9087C30.2428 23.0221 30.2791 23.154 30.2791 23.317H30.6791ZM30.0269 24.3408C30.4382 24.0936 30.6791 23.7496 30.6791 23.317H30.2791C30.2791 23.573 30.1464 23.8023 29.8208 23.998L30.0269 24.3408ZM28.2623 24.729C28.9862 24.729 29.586 24.6053 30.0267 24.3409L29.8209 23.9979C29.4666 24.2105 28.9484 24.329 28.2623 24.329V24.729ZM27.9087 24.7145C28.0283 24.7293 28.1498 24.729 28.2623 24.729V24.329C28.1449 24.329 28.0485 24.3287 27.9577 24.3175L27.9087 24.7145ZM27.1431 24.6111C27.3974 24.6681 27.6619 24.7037 27.924 24.7158L27.9424 24.3162C27.7036 24.3052 27.4622 24.2728 27.2306 24.2208L27.1431 24.6111ZM26.4929 24.3508C26.6659 24.4583 26.8772 24.5406 27.1354 24.6092L27.2382 24.2227C27.002 24.1598 26.8317 24.0904 26.7041 24.0111L26.4929 24.3508ZM25.8455 23.304C25.8455 23.5267 25.8992 23.7308 26.0132 23.9116C26.1264 24.0911 26.292 24.2367 26.4996 24.3548L26.6974 24.0071C26.5328 23.9135 26.4219 23.8098 26.3516 23.6983C26.2821 23.5882 26.2455 23.4597 26.2455 23.304H25.8455ZM26.4998 22.2267C26.29 22.3594 26.1245 22.5121 26.012 22.6943C25.8983 22.8784 25.8455 23.0819 25.8455 23.304H26.2455C26.2455 23.1487 26.2814 23.0194 26.3524 22.9044C26.4245 22.7875 26.5397 22.6748 26.7137 22.5647L26.4998 22.2267ZM26.6422 22.1562C26.5932 22.1723 26.536 22.2026 26.4961 22.2291L26.7174 22.5623C26.7245 22.5576 26.7352 22.5513 26.7468 22.5454C26.7523 22.5426 26.7573 22.5403 26.7614 22.5385C26.7658 22.5366 26.7678 22.5359 26.7676 22.536L26.6422 22.1562ZM26.6443 22.1546L26.6272 22.1618L26.7825 22.5304L26.7996 22.5232L26.6443 22.1546ZM27.2827 21.9451C27.0226 22.0005 26.814 22.0681 26.6316 22.1604L26.8123 22.5173C26.9545 22.4453 27.1275 22.3871 27.3659 22.3364L27.2827 21.9451ZM28.3144 26.3882C28.1281 26.3882 27.9538 26.3634 27.7706 26.3366L27.7128 26.7325C27.8935 26.7588 28.0951 26.7882 28.3144 26.7882V26.3882ZM29.5795 26.1443C29.1871 26.3107 28.7888 26.3882 28.3144 26.3882V26.7882C28.837 26.7882 29.2891 26.7019 29.7357 26.5125L29.5795 26.1443ZM30.5818 25.4071C30.3029 25.7134 29.9641 25.9625 29.5722 26.1475L29.743 26.5092C30.1805 26.3027 30.5621 26.0229 30.8776 25.6764L30.5818 25.4071ZM31.1356 24.4504C30.9761 24.8602 30.7941 25.1701 30.5807 25.4083L30.8786 25.6752C31.1323 25.392 31.3365 25.0369 31.5084 24.5955L31.1356 24.4504ZM31.3362 23.283C31.3362 23.7071 31.2679 24.0977 31.1348 24.4527L31.5093 24.5932C31.6608 24.1892 31.7362 23.7505 31.7362 23.283H31.3362ZM31.1221 22.1041C31.2698 22.4847 31.3147 22.931 31.3366 23.2949L31.7358 23.271C31.7137 22.9025 31.6669 22.4024 31.4951 21.9594L31.1221 22.1041ZM30.5672 21.1466C30.7915 21.3973 30.9734 21.7076 31.1213 22.102L31.4959 21.9615C31.3341 21.5301 31.1287 21.1743 30.8653 20.8799L30.5672 21.1466ZM29.5619 20.4226C29.9402 20.583 30.2687 20.8188 30.5684 21.1479L30.8641 20.8786C30.5284 20.5099 30.1531 20.2388 29.718 20.0543L29.5619 20.4226ZM28.3013 20.1677C28.7524 20.1677 29.1513 20.2483 29.5618 20.4225L29.7181 20.0543C29.2576 19.8589 28.8055 19.7677 28.3013 19.7677V20.1677ZM27.0276 20.4227C27.4065 20.2497 27.8079 20.1677 28.3013 20.1677V19.7677C27.7594 19.7677 27.3 19.8586 26.8615 20.0588L27.0276 20.4227ZM26.4444 20.7859C26.5909 20.6586 26.77 20.5455 27.0306 20.4213L26.8586 20.0602C26.5768 20.1944 26.364 20.3258 26.182 20.484L26.4444 20.7859ZM26.0783 21.129C26.1741 21.0211 26.2969 20.9052 26.4388 20.7905L26.1875 20.4794C26.0317 20.6052 25.8921 20.7361 25.7791 20.8635L26.0783 21.129ZM26.0299 21.1784L26.0709 21.1369L25.7865 20.8556L25.7455 20.8971L26.0299 21.1784ZM25.4801 22.1312C25.6477 21.6994 25.8302 21.391 26.0334 21.1747L25.7419 20.9008C25.4916 21.1673 25.2858 21.5262 25.1072 21.9865L25.4801 22.1312ZM25.2789 23.2908C25.2789 22.8748 25.3474 22.4844 25.4808 22.1292L25.1064 21.9885C24.9547 22.3923 24.8789 22.8307 24.8789 23.2908H25.2789ZM25.4905 24.4448C25.3525 24.1197 25.2789 23.7309 25.2789 23.2908H24.8789C24.8789 23.7745 24.9597 24.218 25.1223 24.6011L25.4905 24.4448ZM26.0449 25.3927C25.8268 25.1604 25.6446 24.8552 25.4937 24.4527L25.1192 24.5931C25.2837 25.0321 25.4905 25.3867 25.7533 25.6665L26.0449 25.3927ZM27.0512 26.1191C26.6755 25.9599 26.3466 25.7241 26.047 25.395L25.7512 25.6643C26.0869 26.033 26.4625 26.3041 26.8951 26.4874L27.0512 26.1191ZM27.7812 26.3385C27.4702 26.2758 27.2507 26.2087 27.055 26.1208L26.8912 26.4858C27.1221 26.5894 27.3721 26.6641 27.7022 26.7306L27.7812 26.3385Z" fill="white" mask="url(#path-18-outside-7)"/>
<mask id="path-20-outside-8" maskUnits="userSpaceOnUse" x="28.8608" y="16.9475" width="3" height="3" fill="black">
<rect fill="white" x="28.8608" y="16.9475" width="3" height="3"/>
<path fill-rule="evenodd" clip-rule="evenodd" d="M31.2788 18.6511C31.2788 18.8336 31.2144 19.0291 31.0723 19.1595C30.9306 19.3028 30.7632 19.3809 30.5701 19.3809C30.3765 19.3809 30.1962 19.3157 30.0673 19.1724C29.9256 19.0291 29.8608 18.8596 29.8608 18.664C29.8608 18.4685 29.9256 18.2863 30.0673 18.156C30.2091 18.0126 30.3765 17.9475 30.5701 17.9475C30.7632 17.9475 30.9437 18.0126 31.0723 18.156C31.2144 18.273 31.2788 18.4426 31.2788 18.6511Z"/>
</mask>
<path fill-rule="evenodd" clip-rule="evenodd" d="M31.2788 18.6511C31.2788 18.8336 31.2144 19.0291 31.0723 19.1595C30.9306 19.3028 30.7632 19.3809 30.5701 19.3809C30.3765 19.3809 30.1962 19.3157 30.0673 19.1724C29.9256 19.0291 29.8608 18.8596 29.8608 18.664C29.8608 18.4685 29.9256 18.2863 30.0673 18.156C30.2091 18.0126 30.3765 17.9475 30.5701 17.9475C30.7632 17.9475 30.9437 18.0126 31.0723 18.156C31.2144 18.273 31.2788 18.4426 31.2788 18.6511Z" fill="#000035"/>
<path d="M31.0723 19.1595L30.937 19.0119L30.9301 19.0188L31.0723 19.1595ZM30.0673 19.1724L30.2162 19.0385L30.2095 19.0318L30.0673 19.1724ZM30.0673 18.156L30.2028 18.3033L30.2095 18.2966L30.0673 18.156ZM31.0723 18.156L30.9235 18.2895L30.9335 18.3007L30.9451 18.3103L31.0723 18.156ZM31.0788 18.6511C31.0788 18.7919 31.0284 18.9283 30.9371 19.0121L31.2076 19.3068C31.4004 19.1299 31.4788 18.8753 31.4788 18.6511H31.0788ZM30.9301 19.0188C30.8207 19.1295 30.7027 19.1809 30.5701 19.1809V19.5809C30.8237 19.5809 31.0405 19.476 31.2145 19.3001L30.9301 19.0188ZM30.5701 19.1809C30.4216 19.1809 30.2999 19.1319 30.216 19.0387L29.9186 19.3062C30.0926 19.4996 30.3313 19.5809 30.5701 19.5809V19.1809ZM30.2095 19.0318C30.1067 18.9278 30.0608 18.8096 30.0608 18.664H29.6608C29.6608 18.9095 29.7445 19.1304 29.9251 19.3131L30.2095 19.0318ZM30.0608 18.664C30.0608 18.5125 30.1102 18.3882 30.2027 18.3032L29.9319 18.0087C29.741 18.1843 29.6608 18.4245 29.6608 18.664H30.0608ZM30.2095 18.2966C30.3121 18.1928 30.4276 18.1475 30.5701 18.1475V17.7475C30.3253 17.7475 30.106 17.8324 29.9251 18.0153L30.2095 18.2966ZM30.5701 18.1475C30.7181 18.1475 30.84 18.1965 30.9235 18.2895L31.2212 18.0224C31.0474 17.8288 30.8083 17.7475 30.5701 17.7475V18.1475ZM30.9451 18.3103C31.0296 18.3799 31.0788 18.4856 31.0788 18.6511H31.4788C31.4788 18.3996 31.3992 18.1662 31.1996 18.0016L30.9451 18.3103Z" fill="#000035" mask="url(#path-20-outside-8)"/>
<path d="M29.6902 22.9129V22.8129H29.5902H28.5464H28.4464V22.9129V23.9686V24.0686H28.5464C28.8586 24.0686 29.1411 23.9391 29.3521 23.7261L29.3521 23.7261C29.5629 23.513 29.6902 23.2274 29.6902 22.9129Z" fill="#000035" stroke="#000035" stroke-width="0.2"/>
<path d="M28.0147 22.9129V22.8129H27.9147H26.8706H26.7706V22.9129C26.7706 23.1689 26.8549 23.412 26.9972 23.599L26.9966 23.5995L27.0057 23.6087C27.0215 23.6247 27.0349 23.6408 27.0513 23.6607L27.0522 23.6618C27.0678 23.6808 27.0864 23.7033 27.1089 23.7261C27.3197 23.9392 27.6026 24.0686 27.9147 24.0686H28.0147V23.9686V22.9129Z" fill="#000035" stroke="#000035" stroke-width="0.2"/>
</svg>
