<svg width="128" height="16" viewBox="0 0 128 16" fill="none" xmlns="http://www.w3.org/2000/svg">
<path fill-rule="evenodd" clip-rule="evenodd" d="M107.497 8.00022C107.497 5.72491 108.44 3.81661 109.818 2.34862C111.196 0.880623 113.225 0 115.401 0C117.649 0 119.607 0.880623 121.057 2.34862C122.507 3.81661 123.378 5.72491 123.378 8.00022C123.378 10.2755 122.435 12.1834 121.057 13.6514C119.607 15.1194 117.577 16 115.401 16C113.153 16 111.196 15.1194 109.818 13.6514C108.367 12.1834 107.497 10.2755 107.497 8.00022ZM109.745 8.00004C109.745 9.61465 110.398 11.0093 111.413 12.0366C112.428 13.0643 113.878 13.7249 115.401 13.7249C116.851 13.7249 118.302 13.0643 119.39 12.0366C120.404 11.0093 121.057 9.61465 121.057 8.00004C121.057 6.38542 120.404 4.99074 119.39 3.96305C118.374 2.9358 116.924 2.27512 115.401 2.27512C113.806 2.27512 112.428 2.9358 111.413 3.96305C110.397 4.99074 109.745 6.38542 109.745 8.00004Z" fill="white"/>
<path fill-rule="evenodd" clip-rule="evenodd" d="M68.1218 7.9269C68.0494 12.6241 71.3127 15.9267 75.6638 15.9267C78.4913 15.9267 81.6097 14.0188 82.6971 11.0095C82.9152 10.4955 83.0601 9.61483 83.1325 8.2939H74.7933V10.4955H80.5219C79.579 12.7708 77.5492 13.7251 75.6638 13.7251C72.6178 13.7251 70.2978 11.3028 70.2978 8.00021C70.2978 4.69766 72.6178 2.34862 75.6638 2.34862C77.6212 2.34862 80.0873 3.22967 80.6668 5.72491H83.0601C82.2621 1.54131 78.6366 0 75.7362 0C71.4576 0 68.1218 3.22967 68.1218 7.9269Z" fill="white"/>
<path fill-rule="evenodd" clip-rule="evenodd" d="M94.0821 2.34865C92.7765 3.81664 91.9065 5.72451 91.9065 7.9265C91.9065 10.1285 92.7765 12.0368 94.0821 13.5048C95.4591 15.0461 97.345 15.9267 99.4477 15.9267C103.074 15.9267 105.901 13.5048 106.772 9.9823H104.596C103.799 12.3305 101.769 13.7252 99.4477 13.7252C97.9253 13.7252 96.6202 13.0645 95.6769 12.0368C94.7344 11.0095 94.0821 9.61487 94.0821 8.07356C94.0821 6.45851 94.7344 5.06469 95.6769 4.03658C96.6202 3.00933 97.9973 2.34865 99.4477 2.34865C101.696 2.34865 103.653 3.52296 104.451 5.872H106.626C105.757 2.34865 102.928 0.0737762 99.4477 0.0737762C97.3454 0.0737762 95.4591 0.954399 94.0821 2.34865Z" fill="white"/>
<path fill-rule="evenodd" clip-rule="evenodd" d="M0.0317383 0.146927V15.7066L7.13787 15.7799C10.111 15.7799 11.5614 13.4313 11.5614 11.0827C11.5614 9.6147 10.9087 7.92634 9.16814 7.19234C10.7634 6.09178 10.9087 4.25722 10.2559 2.71548C9.67602 1.24749 8.44295 0.146927 6.48555 0.146927H0.0317383ZM2.2792 2.42206H6.55788C8.95074 2.42206 8.95074 6.45861 6.48545 6.45861H2.2792V2.42206ZM7.13801 8.73412H2.35229V13.6513H7.13801C8.66038 13.6513 9.38599 12.4041 9.38599 11.2294C9.38599 9.98174 8.66038 8.73412 7.13801 8.73412Z" fill="white"/>
<path fill-rule="evenodd" clip-rule="evenodd" d="M64.6413 0.220062V11.1558L57.1002 0.220062H55.3596V15.8535L57.5348 15.7798V4.84355L65.0039 15.7798H66.8165V0.220062H64.6413Z" fill="white"/>
<path fill-rule="evenodd" clip-rule="evenodd" d="M34.0408 0.220062V2.49536H38.6816V15.9264L41.0025 15.8531V2.49536H45.6425V0.220062H34.0408Z" fill="white"/>
<path fill-rule="evenodd" clip-rule="evenodd" d="M22.293 0.220062V2.49536H26.9338V15.9264L29.2547 15.8531V2.49536H33.8955V0.220062H22.293Z" fill="white"/>
<path fill-rule="evenodd" clip-rule="evenodd" d="M46.2954 0.293854V2.49584H49.1962V13.5782H46.2954V15.7802H54.272V13.5782H51.3713V2.49584H54.272V0.293854H46.2954Z" fill="white"/>
<path fill-rule="evenodd" clip-rule="evenodd" d="M12.6489 0.293854V15.8535L22.0755 15.7802V13.5782H14.8973V9.17469H21.8586V6.89939H14.8973V2.49584H22.0755V0.293854H12.6489Z" fill="white"/>
<path fill-rule="evenodd" clip-rule="evenodd" d="M124.32 14.4585C124.247 15.193 124.828 15.8532 125.625 15.8532C126.423 15.8532 127.002 15.1925 127.002 14.4585C127.002 13.6512 126.423 13.0643 125.625 13.0643C124.9 13.0643 124.32 13.6512 124.32 14.4585Z" fill="white"/>
</svg>
