<svg width="128" height="16" viewBox="0 0 128 16" fill="none" xmlns="http://www.w3.org/2000/svg">
<path fill-rule="evenodd" clip-rule="evenodd" d="M107.497 8.00022C107.497 5.72491 108.44 3.81661 109.818 2.34862C111.196 0.880623 113.225 0 115.401 0C117.649 0 119.607 0.880623 121.057 2.34862C122.507 3.81661 123.378 5.72491 123.378 8.00022C123.378 10.2755 122.435 12.1834 121.057 13.6514C119.607 15.1194 117.577 16 115.401 16C113.153 16 111.196 15.1194 109.818 13.6514C108.367 12.1834 107.497 10.2755 107.497 8.00022ZM109.745 8.00004C109.745 9.61465 110.398 11.0093 111.413 12.0366C112.428 13.0643 113.878 13.7249 115.401 13.7249C116.851 13.7249 118.302 13.0643 119.39 12.0366C120.404 11.0093 121.057 9.61465 121.057 8.00004C121.057 6.38542 120.404 4.99074 119.39 3.96305C118.374 2.9358 116.924 2.27512 115.401 2.27512C113.806 2.27512 112.428 2.9358 111.413 3.96305C110.397 4.99074 109.745 6.38542 109.745 8.00004Z" fill="black"/>
<path fill-rule="evenodd" clip-rule="evenodd" d="M68.1218 7.9269C68.0494 12.6241 71.3127 15.9267 75.6638 15.9267C78.4913 15.9267 81.6097 14.0188 82.6971 11.0095C82.9152 10.4955 83.0601 9.61483 83.1325 8.2939H74.7933V10.4955H80.5219C79.579 12.7708 77.5492 13.7251 75.6638 13.7251C72.6178 13.7251 70.2978 11.3028 70.2978 8.00021C70.2978 4.69766 72.6178 2.34862 75.6638 2.34862C77.6212 2.34862 80.0873 3.22967 80.6668 5.72491H83.0601C82.2621 1.54131 78.6366 0 75.7362 0C71.4576 0 68.1218 3.22967 68.1218 7.9269Z" fill="black"/>
<path fill-rule="evenodd" clip-rule="evenodd" d="M94.0821 2.3486C92.7765 3.81659 91.9065 5.72447 91.9065 7.92646C91.9065 10.1284 92.7765 12.0368 94.0821 13.5047C95.4591 15.0461 97.345 15.9267 99.4477 15.9267C103.074 15.9267 105.901 13.5047 106.772 9.98225H104.596C103.799 12.3304 101.769 13.7251 99.4477 13.7251C97.9253 13.7251 96.6202 13.0644 95.6769 12.0368C94.7344 11.0095 94.0821 9.61482 94.0821 8.07352C94.0821 6.45846 94.7344 5.06465 95.6769 4.03654C96.6202 3.00928 97.9973 2.3486 99.4477 2.3486C101.696 2.3486 103.653 3.52291 104.451 5.87196H106.626C105.757 2.3486 102.928 0.0737305 99.4477 0.0737305C97.3454 0.0737305 95.4591 0.954354 94.0821 2.3486Z" fill="black"/>
<path fill-rule="evenodd" clip-rule="evenodd" d="M0.0317383 0.146973V15.7067L7.13787 15.78C10.111 15.78 11.5614 13.4314 11.5614 11.0827C11.5614 9.61475 10.9087 7.92638 9.16814 7.19239C10.7634 6.09183 10.9087 4.25727 10.2559 2.71553C9.67602 1.24754 8.44295 0.146973 6.48555 0.146973H0.0317383ZM2.2792 2.42211H6.55788C8.95074 2.42211 8.95074 6.45866 6.48545 6.45866H2.2792V2.42211ZM7.13801 8.73417H2.35229V13.6513H7.13801C8.66038 13.6513 9.38599 12.4041 9.38599 11.2294C9.38599 9.98179 8.66038 8.73417 7.13801 8.73417Z" fill="black"/>
<path fill-rule="evenodd" clip-rule="evenodd" d="M64.6413 0.219971V11.1557L57.1002 0.219971H55.3596V15.8534L57.5348 15.7797V4.84346L65.0039 15.7797H66.8165V0.219971H64.6413Z" fill="black"/>
<path fill-rule="evenodd" clip-rule="evenodd" d="M34.0408 0.219971V2.49527H38.6816V15.9263L41.0025 15.853V2.49527H45.6425V0.219971H34.0408Z" fill="black"/>
<path fill-rule="evenodd" clip-rule="evenodd" d="M22.293 0.219971V2.49527H26.9338V15.9263L29.2547 15.853V2.49527H33.8955V0.219971H22.293Z" fill="black"/>
<path fill-rule="evenodd" clip-rule="evenodd" d="M46.2954 0.293945V2.49593H49.1962V13.5783H46.2954V15.7803H54.272V13.5783H51.3713V2.49593H54.272V0.293945H46.2954Z" fill="black"/>
<path fill-rule="evenodd" clip-rule="evenodd" d="M12.6489 0.293945V15.8536L22.0755 15.7803V13.5783H14.8973V9.17478H21.8586V6.89948H14.8973V2.49593H22.0755V0.293945H12.6489Z" fill="black"/>
<path fill-rule="evenodd" clip-rule="evenodd" d="M124.32 14.4585C124.247 15.1929 124.828 15.8531 125.625 15.8531C126.423 15.8531 127.002 15.1925 127.002 14.4585C127.002 13.6511 126.423 13.0642 125.625 13.0642C124.9 13.0642 124.32 13.6511 124.32 14.4585Z" fill="black"/>
</svg>
