<svg width="52" height="52" viewBox="0 0 52 52" fill="none" xmlns="http://www.w3.org/2000/svg">
<circle cx="26" cy="26" r="26" fill="#EC407A"/>
<g clip-path="url(#clip0)">
<path d="M33.8516 28.958C32.87 28.958 32.0408 29.6198 31.785 30.5205H29.7109V28.2332H31.8286C34.1288 28.2332 36 26.3619 36 24.0618C36 22.2176 34.7769 20.5975 33.0405 20.0699C32.5156 17.9682 30.6184 16.4608 28.4212 16.4608C27.5694 16.4608 26.7535 16.6804 26.0334 17.1001C25.2708 16.4027 24.2708 16.0109 23.2202 16.0109C20.9665 16.0109 19.1246 17.8074 19.0511 20.0434C17.2674 20.542 16 22.175 16 24.0618C16 26.3619 17.8713 28.2332 20.1714 28.2332H22.2891V30.5205H20.215C19.9593 29.6198 19.13 28.958 18.1484 28.958C16.9638 28.958 16 29.9218 16 31.1064C16 32.2911 16.9638 33.2548 18.1484 33.2548C19.13 33.2548 19.9592 32.593 20.215 31.6923H22.875C23.1986 31.6923 23.4609 31.43 23.4609 31.1064V28.2332H25.4141V31.7742C24.5134 32.03 23.8516 32.8593 23.8516 33.8408C23.8516 35.0254 24.8154 35.9892 26 35.9892C27.1846 35.9892 28.1484 35.0254 28.1484 33.8408C28.1484 32.8593 27.4866 32.03 26.5859 31.7742V28.2332H28.5391V31.1064C28.5391 31.43 28.8014 31.6923 29.125 31.6923H31.785C32.0407 32.593 32.87 33.2548 33.8516 33.2548C35.0362 33.2548 36 32.2911 36 31.1064C36 29.9218 35.0362 28.958 33.8516 28.958ZM18.1484 32.083C17.61 32.083 17.1719 31.6449 17.1719 31.1064C17.1719 30.5679 17.61 30.1298 18.1484 30.1298C18.6869 30.1298 19.125 30.5679 19.125 31.1064C19.125 31.6449 18.6869 32.083 18.1484 32.083ZM26.9766 33.8408C26.9766 34.3793 26.5385 34.8173 26 34.8173C25.4615 34.8173 25.0234 34.3793 25.0234 33.8408C25.0234 33.3023 25.4615 32.8642 26 32.8642C26.5385 32.8642 26.9766 33.3023 26.9766 33.8408ZM20.1714 27.0613C18.5175 27.0613 17.1719 25.7157 17.1719 24.0618C17.1719 22.5836 18.2737 21.3077 19.7348 21.094C20.0431 21.0489 20.2621 20.7704 20.2334 20.4602C20.2249 20.3686 20.2206 20.2751 20.2206 20.1822C20.2206 18.5283 21.5662 17.1828 23.2201 17.1828C24.1025 17.1828 24.9347 17.5664 25.5031 18.2352C25.7027 18.47 26.05 18.5101 26.2979 18.327C26.9124 17.8727 27.6466 17.6327 28.4211 17.6327C30.2035 17.6327 31.6857 18.9404 31.9628 20.6416C32.002 20.8822 32.186 21.0734 32.4248 21.1217C33.8174 21.4036 34.8281 22.6401 34.8281 24.0618C34.8281 25.7157 33.4825 27.0613 31.8286 27.0613H20.1714ZM33.8516 32.083C33.3131 32.083 32.875 31.6449 32.875 31.1064C32.875 30.5679 33.3131 30.1298 33.8516 30.1298C34.39 30.1298 34.8281 30.5679 34.8281 31.1064C34.8281 31.6449 34.39 32.083 33.8516 32.083Z" fill="white"/>
</g>
<defs>
<clipPath id="clip0">
<rect width="20" height="20" fill="white" transform="translate(16 16)"/>
</clipPath>
</defs>
</svg>
