<svg width="52" height="52" viewBox="0 0 52 52" fill="none" xmlns="http://www.w3.org/2000/svg">
<circle cx="26" cy="26" r="26" fill="#009688"/>
<path d="M33.0711 28.9289C31.9819 27.8398 30.6855 27.0335 29.2711 26.5454C30.786 25.502 31.7812 23.7558 31.7812 21.7812C31.7812 18.5935 29.1878 16 26 16C22.8122 16 20.2188 18.5935 20.2188 21.7812C20.2188 23.7558 21.214 25.502 22.729 26.5454C21.3145 27.0335 20.0181 27.8398 18.9289 28.9289C17.0402 30.8177 16 33.3289 16 36H17.5625C17.5625 31.3475 21.3475 27.5625 26 27.5625C30.6525 27.5625 34.4375 31.3475 34.4375 36H36C36 33.3289 34.9598 30.8177 33.0711 28.9289ZM26 26C23.6738 26 21.7812 24.1075 21.7812 21.7812C21.7812 19.455 23.6738 17.5625 26 17.5625C28.3262 17.5625 30.2188 19.455 30.2188 21.7812C30.2188 24.1075 28.3262 26 26 26Z" fill="white"/>
</svg>
